M48
; DRILL file {KiCad (6.0.0)} date Fri May 26 23:18:28 2023
; FORMAT={-:-/ absolute / inch / decimal}
; #@! TF.CreationDate,2023-05-26T23:18:28+03:00
; #@! TF.GenerationSoftware,Kicad,Pcbnew,(6.0.0)
; #@! TF.FileFunction,Plated,1,2,PTH
FMAT,2
INCH
; #@! TA.AperFunction,Plated,PTH,ViaDrill
T1C0.0157
; #@! TA.AperFunction,Plated,PTH,ComponentDrill
T2C0.0236
; #@! TA.AperFunction,Plated,PTH,ComponentDrill
T3C0.0315
; #@! TA.AperFunction,Plated,PTH,ComponentDrill
T4C0.0335
; #@! TA.AperFunction,Plated,PTH,ComponentDrill
T5C0.0394
; #@! TA.AperFunction,Plated,PTH,ComponentDrill
T6C0.0551
%
G90
G05
T1
X3.5974Y-5.8925
X3.81Y-6.205
X3.84Y-5.47
X3.84Y-5.67
X3.8454Y-6.41
X3.85Y-5.22
X3.85Y-5.305
X3.92Y-4.86
X3.92Y-6.62
X3.92Y-6.79
X3.95Y-5.19
X3.95Y-5.75
X3.975Y-5.685
X4.0Y-6.39
X4.035Y-5.5
X4.05Y-5.71
X4.055Y-4.995
X4.1Y-5.09
X4.12Y-5.77
X4.1298Y-5.4448
X4.13Y-6.56
X4.13Y-6.63
X4.16Y-5.47
X4.16Y-6.3
X4.1698Y-6.3498
X4.17Y-4.99
X4.2052Y-5.4452
X4.21Y-5.29
X4.22Y-5.6
X4.23Y-6.5
X4.26Y-6.15
X4.27Y-5.18
X4.27Y-5.51
X4.31Y-5.12
X4.31Y-5.84
X4.31Y-6.245
X4.32Y-5.49
X4.35Y-5.11
X4.355Y-6.375
X4.36Y-6.44
X4.4073Y-5.2823
X4.42Y-5.19
X4.4365Y-5.24
X4.44Y-5.97
X4.45Y-6.12
X4.46Y-5.66
X4.48Y-6.49
X4.485Y-5.1832
X4.4905Y-5.0495
X4.53Y-5.225
X4.54Y-6.13
X4.545Y-5.35
X4.55Y-5.0485
X4.55Y-5.835
X4.555Y-5.28
X4.57Y-5.98
X4.5872Y-5.0245
X4.59Y-5.89
X4.62Y-6.66
X4.65Y-5.65
X4.65Y-6.47
X4.695Y-5.4585
X4.7373Y-5.3743
X4.74Y-5.16
X4.74Y-5.91
X4.74Y-6.245
X4.755Y-6.105
X4.78Y-5.43
X4.81Y-5.39
X4.81Y-5.7
X4.81Y-6.12
X4.85Y-5.33
X4.91Y-4.97
X4.91Y-5.37
X4.91Y-6.12
X4.92Y-5.53
X4.92Y-5.65
X4.93Y-5.1984
X4.945Y-5.705
X4.965Y-5.4215
X4.975Y-6.84
X4.98Y-5.99
X4.9865Y-5.1885
X5.03Y-6.04
X5.03Y-6.18
X5.05Y-5.53
X5.06Y-5.23
X5.09Y-5.3
X5.11Y-4.92
X5.11Y-6.57
X5.155Y-6.295
X5.175Y-5.49
X5.2Y-5.185
X5.23Y-6.26
X5.25Y-6.97
X5.3Y-5.94
X5.53Y-5.92
X5.54Y-6.34
X5.56Y-5.03
X5.58Y-5.19
T3
X4.925Y-5.825
X5.1171Y-5.825
T4
X4.0706Y-5.2613
X4.0706Y-5.34
X4.1494Y-5.2613
X4.1494Y-5.34
T5
X3.6546Y-5.975
X3.6546Y-6.075
X3.6546Y-6.175
X3.6546Y-6.275
X3.6546Y-6.375
X3.6546Y-6.475
X3.6546Y-6.575
X3.6546Y-6.675
X3.7546Y-5.975
X3.7546Y-6.075
X3.7546Y-6.175
X3.7546Y-6.275
X3.7546Y-6.375
X3.7546Y-6.475
X3.7546Y-6.575
X3.7546Y-6.675
X4.32Y-4.97
X4.32Y-5.57
X4.42Y-4.97
X4.42Y-5.57
X4.52Y-4.97
X4.52Y-5.57
X4.62Y-4.97
X4.62Y-5.57
X4.72Y-4.97
X4.72Y-5.57
X4.82Y-4.97
X4.82Y-5.57
T6
X4.3126Y-6.77
X4.5094Y-6.77
X4.7063Y-6.77
X4.9031Y-6.77
X5.1Y-6.77
X5.445Y-6.51
X5.445Y-6.7069
T2
G00X3.5519Y-5.2299
M15
G01X3.5834Y-5.2299
M16
G05
G00X3.5519Y-5.5701
M15
G01X3.5834Y-5.5701
M16
G05
G00X3.7106Y-5.2299
M15
G01X3.7539Y-5.2299
M16
G05
G00X3.7106Y-5.5701
M15
G01X3.7539Y-5.5701
M16
G05
T0
M30
