%TF.GenerationSoftware,KiCad,Pcbnew,(6.0.0)*%
%TF.CreationDate,2023-05-26T23:18:24+03:00*%
%TF.ProjectId,uni_mcu_pcb,756e695f-6d63-4755-9f70-63622e6b6963,rev?*%
%TF.SameCoordinates,Original*%
%TF.FileFunction,Legend,Bot*%
%TF.FilePolarity,Positive*%
%FSLAX46Y46*%
G04 Gerber Fmt 4.6, Leading zero omitted, Abs format (unit mm)*
G04 Created by KiCad (PCBNEW (6.0.0)) date 2023-05-26 23:18:24*
%MOMM*%
%LPD*%
G01*
G04 APERTURE LIST*
%ADD10C,0.150000*%
%ADD11C,0.120000*%
G04 APERTURE END LIST*
D10*
X131031523Y-139342761D02*
X130888666Y-139390380D01*
X130650571Y-139390380D01*
X130555333Y-139342761D01*
X130507714Y-139295142D01*
X130460095Y-139199904D01*
X130460095Y-139104666D01*
X130507714Y-139009428D01*
X130555333Y-138961809D01*
X130650571Y-138914190D01*
X130841047Y-138866571D01*
X130936285Y-138818952D01*
X130983904Y-138771333D01*
X131031523Y-138676095D01*
X131031523Y-138580857D01*
X130983904Y-138485619D01*
X130936285Y-138438000D01*
X130841047Y-138390380D01*
X130602952Y-138390380D01*
X130460095Y-138438000D01*
X130174380Y-138390380D02*
X129602952Y-138390380D01*
X129888666Y-139390380D02*
X129888666Y-138390380D01*
X129269619Y-139390380D02*
X129269619Y-138390380D01*
X128936285Y-139104666D01*
X128602952Y-138390380D01*
X128602952Y-139390380D01*
X128222000Y-138390380D02*
X127602952Y-138390380D01*
X127936285Y-138771333D01*
X127793428Y-138771333D01*
X127698190Y-138818952D01*
X127650571Y-138866571D01*
X127602952Y-138961809D01*
X127602952Y-139199904D01*
X127650571Y-139295142D01*
X127698190Y-139342761D01*
X127793428Y-139390380D01*
X128079142Y-139390380D01*
X128174380Y-139342761D01*
X128222000Y-139295142D01*
X127222000Y-138485619D02*
X127174380Y-138438000D01*
X127079142Y-138390380D01*
X126841047Y-138390380D01*
X126745809Y-138438000D01*
X126698190Y-138485619D01*
X126650571Y-138580857D01*
X126650571Y-138676095D01*
X126698190Y-138818952D01*
X127269619Y-139390380D01*
X126650571Y-139390380D01*
X125888666Y-138866571D02*
X126222000Y-138866571D01*
X126222000Y-139390380D02*
X126222000Y-138390380D01*
X125745809Y-138390380D01*
X125174380Y-138390380D02*
X125079142Y-138390380D01*
X124983904Y-138438000D01*
X124936285Y-138485619D01*
X124888666Y-138580857D01*
X124841047Y-138771333D01*
X124841047Y-139009428D01*
X124888666Y-139199904D01*
X124936285Y-139295142D01*
X124983904Y-139342761D01*
X125079142Y-139390380D01*
X125174380Y-139390380D01*
X125269619Y-139342761D01*
X125317238Y-139295142D01*
X125364857Y-139199904D01*
X125412476Y-139009428D01*
X125412476Y-138771333D01*
X125364857Y-138580857D01*
X125317238Y-138485619D01*
X125269619Y-138438000D01*
X125174380Y-138390380D01*
X124507714Y-138390380D02*
X123888666Y-138390380D01*
X124222000Y-138771333D01*
X124079142Y-138771333D01*
X123983904Y-138818952D01*
X123936285Y-138866571D01*
X123888666Y-138961809D01*
X123888666Y-139199904D01*
X123936285Y-139295142D01*
X123983904Y-139342761D01*
X124079142Y-139390380D01*
X124364857Y-139390380D01*
X124460095Y-139342761D01*
X124507714Y-139295142D01*
X123269619Y-138390380D02*
X123174380Y-138390380D01*
X123079142Y-138438000D01*
X123031523Y-138485619D01*
X122983904Y-138580857D01*
X122936285Y-138771333D01*
X122936285Y-139009428D01*
X122983904Y-139199904D01*
X123031523Y-139295142D01*
X123079142Y-139342761D01*
X123174380Y-139390380D01*
X123269619Y-139390380D01*
X123364857Y-139342761D01*
X123412476Y-139295142D01*
X123460095Y-139199904D01*
X123507714Y-139009428D01*
X123507714Y-138771333D01*
X123460095Y-138580857D01*
X123412476Y-138485619D01*
X123364857Y-138438000D01*
X123269619Y-138390380D01*
X122507714Y-139390380D02*
X122507714Y-138390380D01*
X121936285Y-139390380D02*
X122364857Y-138818952D01*
X121936285Y-138390380D02*
X122507714Y-138961809D01*
X121079142Y-138390380D02*
X121269619Y-138390380D01*
X121364857Y-138438000D01*
X121412476Y-138485619D01*
X121507714Y-138628476D01*
X121555333Y-138818952D01*
X121555333Y-139199904D01*
X121507714Y-139295142D01*
X121460095Y-139342761D01*
X121364857Y-139390380D01*
X121174380Y-139390380D01*
X121079142Y-139342761D01*
X121031523Y-139295142D01*
X120983904Y-139199904D01*
X120983904Y-138961809D01*
X121031523Y-138866571D01*
X121079142Y-138818952D01*
X121174380Y-138771333D01*
X121364857Y-138771333D01*
X121460095Y-138818952D01*
X121507714Y-138866571D01*
X121555333Y-138961809D01*
X120698190Y-138390380D02*
X120126761Y-138390380D01*
X120412476Y-139390380D02*
X120412476Y-138390380D01*
X119888666Y-139390380D02*
X119364857Y-138723714D01*
X119888666Y-138723714D02*
X119364857Y-139390380D01*
X100726714Y-154329428D02*
X99964809Y-154329428D01*
X100345761Y-154710380D02*
X100345761Y-153948476D01*
X99012428Y-153710380D02*
X99488619Y-153710380D01*
X99536238Y-154186571D01*
X99488619Y-154138952D01*
X99393380Y-154091333D01*
X99155285Y-154091333D01*
X99060047Y-154138952D01*
X99012428Y-154186571D01*
X98964809Y-154281809D01*
X98964809Y-154519904D01*
X99012428Y-154615142D01*
X99060047Y-154662761D01*
X99155285Y-154710380D01*
X99393380Y-154710380D01*
X99488619Y-154662761D01*
X99536238Y-154615142D01*
X98679095Y-153710380D02*
X98345761Y-154710380D01*
X98012428Y-153710380D01*
X101441000Y-155939428D02*
X100679095Y-155939428D01*
X101060047Y-156320380D02*
X101060047Y-155558476D01*
X100298142Y-155320380D02*
X99679095Y-155320380D01*
X100012428Y-155701333D01*
X99869571Y-155701333D01*
X99774333Y-155748952D01*
X99726714Y-155796571D01*
X99679095Y-155891809D01*
X99679095Y-156129904D01*
X99726714Y-156225142D01*
X99774333Y-156272761D01*
X99869571Y-156320380D01*
X100155285Y-156320380D01*
X100250523Y-156272761D01*
X100298142Y-156225142D01*
X99250523Y-156225142D02*
X99202904Y-156272761D01*
X99250523Y-156320380D01*
X99298142Y-156272761D01*
X99250523Y-156225142D01*
X99250523Y-156320380D01*
X98869571Y-155320380D02*
X98250523Y-155320380D01*
X98583857Y-155701333D01*
X98441000Y-155701333D01*
X98345761Y-155748952D01*
X98298142Y-155796571D01*
X98250523Y-155891809D01*
X98250523Y-156129904D01*
X98298142Y-156225142D01*
X98345761Y-156272761D01*
X98441000Y-156320380D01*
X98726714Y-156320380D01*
X98821952Y-156272761D01*
X98869571Y-156225142D01*
X97964809Y-155320380D02*
X97631476Y-156320380D01*
X97298142Y-155320380D01*
X100917190Y-156930380D02*
X100726714Y-156930380D01*
X100631476Y-156978000D01*
X100536238Y-157073238D01*
X100488619Y-157263714D01*
X100488619Y-157597047D01*
X100536238Y-157787523D01*
X100631476Y-157882761D01*
X100726714Y-157930380D01*
X100917190Y-157930380D01*
X101012428Y-157882761D01*
X101107666Y-157787523D01*
X101155285Y-157597047D01*
X101155285Y-157263714D01*
X101107666Y-157073238D01*
X101012428Y-156978000D01*
X100917190Y-156930380D01*
X100060047Y-156930380D02*
X100060047Y-157739904D01*
X100012428Y-157835142D01*
X99964809Y-157882761D01*
X99869571Y-157930380D01*
X99679095Y-157930380D01*
X99583857Y-157882761D01*
X99536238Y-157835142D01*
X99488619Y-157739904D01*
X99488619Y-156930380D01*
X99155285Y-156930380D02*
X98583857Y-156930380D01*
X98869571Y-157930380D02*
X98869571Y-156930380D01*
X98298142Y-157025619D02*
X98250523Y-156978000D01*
X98155285Y-156930380D01*
X97917190Y-156930380D01*
X97821952Y-156978000D01*
X97774333Y-157025619D01*
X97726714Y-157120857D01*
X97726714Y-157216095D01*
X97774333Y-157358952D01*
X98345761Y-157930380D01*
X97726714Y-157930380D01*
X100917190Y-158540380D02*
X100726714Y-158540380D01*
X100631476Y-158588000D01*
X100536238Y-158683238D01*
X100488619Y-158873714D01*
X100488619Y-159207047D01*
X100536238Y-159397523D01*
X100631476Y-159492761D01*
X100726714Y-159540380D01*
X100917190Y-159540380D01*
X101012428Y-159492761D01*
X101107666Y-159397523D01*
X101155285Y-159207047D01*
X101155285Y-158873714D01*
X101107666Y-158683238D01*
X101012428Y-158588000D01*
X100917190Y-158540380D01*
X100060047Y-158540380D02*
X100060047Y-159349904D01*
X100012428Y-159445142D01*
X99964809Y-159492761D01*
X99869571Y-159540380D01*
X99679095Y-159540380D01*
X99583857Y-159492761D01*
X99536238Y-159445142D01*
X99488619Y-159349904D01*
X99488619Y-158540380D01*
X99155285Y-158540380D02*
X98583857Y-158540380D01*
X98869571Y-159540380D02*
X98869571Y-158540380D01*
X98345761Y-158540380D02*
X97726714Y-158540380D01*
X98060047Y-158921333D01*
X97917190Y-158921333D01*
X97821952Y-158968952D01*
X97774333Y-159016571D01*
X97726714Y-159111809D01*
X97726714Y-159349904D01*
X97774333Y-159445142D01*
X97821952Y-159492761D01*
X97917190Y-159540380D01*
X98202904Y-159540380D01*
X98298142Y-159492761D01*
X98345761Y-159445142D01*
X100917190Y-160150380D02*
X100726714Y-160150380D01*
X100631476Y-160198000D01*
X100536238Y-160293238D01*
X100488619Y-160483714D01*
X100488619Y-160817047D01*
X100536238Y-161007523D01*
X100631476Y-161102761D01*
X100726714Y-161150380D01*
X100917190Y-161150380D01*
X101012428Y-161102761D01*
X101107666Y-161007523D01*
X101155285Y-160817047D01*
X101155285Y-160483714D01*
X101107666Y-160293238D01*
X101012428Y-160198000D01*
X100917190Y-160150380D01*
X100060047Y-160150380D02*
X100060047Y-160959904D01*
X100012428Y-161055142D01*
X99964809Y-161102761D01*
X99869571Y-161150380D01*
X99679095Y-161150380D01*
X99583857Y-161102761D01*
X99536238Y-161055142D01*
X99488619Y-160959904D01*
X99488619Y-160150380D01*
X99155285Y-160150380D02*
X98583857Y-160150380D01*
X98869571Y-161150380D02*
X98869571Y-160150380D01*
X97821952Y-160483714D02*
X97821952Y-161150380D01*
X98060047Y-160102761D02*
X98298142Y-160817047D01*
X97679095Y-160817047D01*
X100607666Y-162760380D02*
X100607666Y-161760380D01*
X100226714Y-161760380D01*
X100131476Y-161808000D01*
X100083857Y-161855619D01*
X100036238Y-161950857D01*
X100036238Y-162093714D01*
X100083857Y-162188952D01*
X100131476Y-162236571D01*
X100226714Y-162284190D01*
X100607666Y-162284190D01*
X99655285Y-162474666D02*
X99179095Y-162474666D01*
X99750523Y-162760380D02*
X99417190Y-161760380D01*
X99083857Y-162760380D01*
X98845761Y-161760380D02*
X98179095Y-161760380D01*
X98607666Y-162760380D01*
X101083857Y-164370380D02*
X101083857Y-163370380D01*
X100702904Y-163370380D01*
X100607666Y-163418000D01*
X100560047Y-163465619D01*
X100512428Y-163560857D01*
X100512428Y-163703714D01*
X100560047Y-163798952D01*
X100607666Y-163846571D01*
X100702904Y-163894190D01*
X101083857Y-163894190D01*
X100131476Y-164084666D02*
X99655285Y-164084666D01*
X100226714Y-164370380D02*
X99893380Y-163370380D01*
X99560047Y-164370380D01*
X98702904Y-164370380D02*
X99274333Y-164370380D01*
X98988619Y-164370380D02*
X98988619Y-163370380D01*
X99083857Y-163513238D01*
X99179095Y-163608476D01*
X99274333Y-163656095D01*
X98083857Y-163370380D02*
X97988619Y-163370380D01*
X97893380Y-163418000D01*
X97845761Y-163465619D01*
X97798142Y-163560857D01*
X97750523Y-163751333D01*
X97750523Y-163989428D01*
X97798142Y-164179904D01*
X97845761Y-164275142D01*
X97893380Y-164322761D01*
X97988619Y-164370380D01*
X98083857Y-164370380D01*
X98179095Y-164322761D01*
X98226714Y-164275142D01*
X98274333Y-164179904D01*
X98321952Y-163989428D01*
X98321952Y-163751333D01*
X98274333Y-163560857D01*
X98226714Y-163465619D01*
X98179095Y-163418000D01*
X98083857Y-163370380D01*
X100607666Y-165980380D02*
X100607666Y-164980380D01*
X100226714Y-164980380D01*
X100131476Y-165028000D01*
X100083857Y-165075619D01*
X100036238Y-165170857D01*
X100036238Y-165313714D01*
X100083857Y-165408952D01*
X100131476Y-165456571D01*
X100226714Y-165504190D01*
X100607666Y-165504190D01*
X99655285Y-165694666D02*
X99179095Y-165694666D01*
X99750523Y-165980380D02*
X99417190Y-164980380D01*
X99083857Y-165980380D01*
X98702904Y-165980380D02*
X98512428Y-165980380D01*
X98417190Y-165932761D01*
X98369571Y-165885142D01*
X98274333Y-165742285D01*
X98226714Y-165551809D01*
X98226714Y-165170857D01*
X98274333Y-165075619D01*
X98321952Y-165028000D01*
X98417190Y-164980380D01*
X98607666Y-164980380D01*
X98702904Y-165028000D01*
X98750523Y-165075619D01*
X98798142Y-165170857D01*
X98798142Y-165408952D01*
X98750523Y-165504190D01*
X98702904Y-165551809D01*
X98607666Y-165599428D01*
X98417190Y-165599428D01*
X98321952Y-165551809D01*
X98274333Y-165504190D01*
X98226714Y-165408952D01*
X134707380Y-163893666D02*
X135707380Y-164227000D01*
X134707380Y-164560333D01*
X135612142Y-165465095D02*
X135659761Y-165417476D01*
X135707380Y-165274619D01*
X135707380Y-165179380D01*
X135659761Y-165036523D01*
X135564523Y-164941285D01*
X135469285Y-164893666D01*
X135278809Y-164846047D01*
X135135952Y-164846047D01*
X134945476Y-164893666D01*
X134850238Y-164941285D01*
X134755000Y-165036523D01*
X134707380Y-165179380D01*
X134707380Y-165274619D01*
X134755000Y-165417476D01*
X134802619Y-165465095D01*
X135612142Y-166465095D02*
X135659761Y-166417476D01*
X135707380Y-166274619D01*
X135707380Y-166179380D01*
X135659761Y-166036523D01*
X135564523Y-165941285D01*
X135469285Y-165893666D01*
X135278809Y-165846047D01*
X135135952Y-165846047D01*
X134945476Y-165893666D01*
X134850238Y-165941285D01*
X134755000Y-166036523D01*
X134707380Y-166179380D01*
X134707380Y-166274619D01*
X134755000Y-166417476D01*
X134802619Y-166465095D01*
X107205333Y-176061619D02*
X107395809Y-176061619D01*
X107491047Y-176014000D01*
X107586285Y-175918761D01*
X107633904Y-175728285D01*
X107633904Y-175394952D01*
X107586285Y-175204476D01*
X107491047Y-175109238D01*
X107395809Y-175061619D01*
X107205333Y-175061619D01*
X107110095Y-175109238D01*
X107014857Y-175204476D01*
X106967238Y-175394952D01*
X106967238Y-175728285D01*
X107014857Y-175918761D01*
X107110095Y-176014000D01*
X107205333Y-176061619D01*
X108062476Y-176061619D02*
X108062476Y-175252095D01*
X108110095Y-175156857D01*
X108157714Y-175109238D01*
X108252952Y-175061619D01*
X108443428Y-175061619D01*
X108538666Y-175109238D01*
X108586285Y-175156857D01*
X108633904Y-175252095D01*
X108633904Y-176061619D01*
X108967238Y-176061619D02*
X109538666Y-176061619D01*
X109252952Y-175061619D02*
X109252952Y-176061619D01*
X110300571Y-175728285D02*
X110300571Y-175061619D01*
X110062476Y-176109238D02*
X109824380Y-175394952D01*
X110443428Y-175394952D01*
X112538666Y-176061619D02*
X112729142Y-176061619D01*
X112824380Y-176014000D01*
X112919619Y-175918761D01*
X112967238Y-175728285D01*
X112967238Y-175394952D01*
X112919619Y-175204476D01*
X112824380Y-175109238D01*
X112729142Y-175061619D01*
X112538666Y-175061619D01*
X112443428Y-175109238D01*
X112348190Y-175204476D01*
X112300571Y-175394952D01*
X112300571Y-175728285D01*
X112348190Y-175918761D01*
X112443428Y-176014000D01*
X112538666Y-176061619D01*
X113395809Y-176061619D02*
X113395809Y-175252095D01*
X113443428Y-175156857D01*
X113491047Y-175109238D01*
X113586285Y-175061619D01*
X113776761Y-175061619D01*
X113872000Y-175109238D01*
X113919619Y-175156857D01*
X113967238Y-175252095D01*
X113967238Y-176061619D01*
X114300571Y-176061619D02*
X114872000Y-176061619D01*
X114586285Y-175061619D02*
X114586285Y-176061619D01*
X115110095Y-176061619D02*
X115729142Y-176061619D01*
X115395809Y-175680666D01*
X115538666Y-175680666D01*
X115633904Y-175633047D01*
X115681523Y-175585428D01*
X115729142Y-175490190D01*
X115729142Y-175252095D01*
X115681523Y-175156857D01*
X115633904Y-175109238D01*
X115538666Y-175061619D01*
X115252952Y-175061619D01*
X115157714Y-175109238D01*
X115110095Y-175156857D01*
X117872000Y-176061619D02*
X118062476Y-176061619D01*
X118157714Y-176014000D01*
X118252952Y-175918761D01*
X118300571Y-175728285D01*
X118300571Y-175394952D01*
X118252952Y-175204476D01*
X118157714Y-175109238D01*
X118062476Y-175061619D01*
X117872000Y-175061619D01*
X117776761Y-175109238D01*
X117681523Y-175204476D01*
X117633904Y-175394952D01*
X117633904Y-175728285D01*
X117681523Y-175918761D01*
X117776761Y-176014000D01*
X117872000Y-176061619D01*
X118729142Y-176061619D02*
X118729142Y-175252095D01*
X118776761Y-175156857D01*
X118824380Y-175109238D01*
X118919619Y-175061619D01*
X119110095Y-175061619D01*
X119205333Y-175109238D01*
X119252952Y-175156857D01*
X119300571Y-175252095D01*
X119300571Y-176061619D01*
X119633904Y-176061619D02*
X120205333Y-176061619D01*
X119919619Y-175061619D02*
X119919619Y-176061619D01*
X120491047Y-175966380D02*
X120538666Y-176014000D01*
X120633904Y-176061619D01*
X120872000Y-176061619D01*
X120967238Y-176014000D01*
X121014857Y-175966380D01*
X121062476Y-175871142D01*
X121062476Y-175775904D01*
X121014857Y-175633047D01*
X120443428Y-175061619D01*
X121062476Y-175061619D01*
X123205333Y-176061619D02*
X123395809Y-176061619D01*
X123491047Y-176014000D01*
X123586285Y-175918761D01*
X123633904Y-175728285D01*
X123633904Y-175394952D01*
X123586285Y-175204476D01*
X123491047Y-175109238D01*
X123395809Y-175061619D01*
X123205333Y-175061619D01*
X123110095Y-175109238D01*
X123014857Y-175204476D01*
X122967238Y-175394952D01*
X122967238Y-175728285D01*
X123014857Y-175918761D01*
X123110095Y-176014000D01*
X123205333Y-176061619D01*
X124062476Y-176061619D02*
X124062476Y-175252095D01*
X124110095Y-175156857D01*
X124157714Y-175109238D01*
X124252952Y-175061619D01*
X124443428Y-175061619D01*
X124538666Y-175109238D01*
X124586285Y-175156857D01*
X124633904Y-175252095D01*
X124633904Y-176061619D01*
X124967238Y-176061619D02*
X125538666Y-176061619D01*
X125252952Y-175061619D02*
X125252952Y-176061619D01*
X126395809Y-175061619D02*
X125824380Y-175061619D01*
X126110095Y-175061619D02*
X126110095Y-176061619D01*
X126014857Y-175918761D01*
X125919619Y-175823523D01*
X125824380Y-175775904D01*
X128205333Y-176061619D02*
X128538666Y-175061619D01*
X128872000Y-176061619D01*
X129776761Y-175156857D02*
X129729142Y-175109238D01*
X129586285Y-175061619D01*
X129491047Y-175061619D01*
X129348190Y-175109238D01*
X129252952Y-175204476D01*
X129205333Y-175299714D01*
X129157714Y-175490190D01*
X129157714Y-175633047D01*
X129205333Y-175823523D01*
X129252952Y-175918761D01*
X129348190Y-176014000D01*
X129491047Y-176061619D01*
X129586285Y-176061619D01*
X129729142Y-176014000D01*
X129776761Y-175966380D01*
X130776761Y-175156857D02*
X130729142Y-175109238D01*
X130586285Y-175061619D01*
X130491047Y-175061619D01*
X130348190Y-175109238D01*
X130252952Y-175204476D01*
X130205333Y-175299714D01*
X130157714Y-175490190D01*
X130157714Y-175633047D01*
X130205333Y-175823523D01*
X130252952Y-175918761D01*
X130348190Y-176014000D01*
X130491047Y-176061619D01*
X130586285Y-176061619D01*
X130729142Y-176014000D01*
X130776761Y-175966380D01*
X130157809Y-164806380D02*
X129824476Y-165806380D01*
X129491142Y-164806380D01*
X128586380Y-165711142D02*
X128634000Y-165758761D01*
X128776857Y-165806380D01*
X128872095Y-165806380D01*
X129014952Y-165758761D01*
X129110190Y-165663523D01*
X129157809Y-165568285D01*
X129205428Y-165377809D01*
X129205428Y-165234952D01*
X129157809Y-165044476D01*
X129110190Y-164949238D01*
X129014952Y-164854000D01*
X128872095Y-164806380D01*
X128776857Y-164806380D01*
X128634000Y-164854000D01*
X128586380Y-164901619D01*
X127586380Y-165711142D02*
X127634000Y-165758761D01*
X127776857Y-165806380D01*
X127872095Y-165806380D01*
X128014952Y-165758761D01*
X128110190Y-165663523D01*
X128157809Y-165568285D01*
X128205428Y-165377809D01*
X128205428Y-165234952D01*
X128157809Y-165044476D01*
X128110190Y-164949238D01*
X128014952Y-164854000D01*
X127872095Y-164806380D01*
X127776857Y-164806380D01*
X127634000Y-164854000D01*
X127586380Y-164901619D01*
X125634000Y-165806380D02*
X125634000Y-164806380D01*
X125253047Y-164806380D01*
X125157809Y-164854000D01*
X125110190Y-164901619D01*
X125062571Y-164996857D01*
X125062571Y-165139714D01*
X125110190Y-165234952D01*
X125157809Y-165282571D01*
X125253047Y-165330190D01*
X125634000Y-165330190D01*
X124681619Y-165520666D02*
X124205428Y-165520666D01*
X124776857Y-165806380D02*
X124443523Y-164806380D01*
X124110190Y-165806380D01*
X123872095Y-164806380D02*
X123253047Y-164806380D01*
X123586380Y-165187333D01*
X123443523Y-165187333D01*
X123348285Y-165234952D01*
X123300666Y-165282571D01*
X123253047Y-165377809D01*
X123253047Y-165615904D01*
X123300666Y-165711142D01*
X123348285Y-165758761D01*
X123443523Y-165806380D01*
X123729238Y-165806380D01*
X123824476Y-165758761D01*
X123872095Y-165711142D01*
X121300666Y-165806380D02*
X121300666Y-164806380D01*
X120919714Y-164806380D01*
X120824476Y-164854000D01*
X120776857Y-164901619D01*
X120729238Y-164996857D01*
X120729238Y-165139714D01*
X120776857Y-165234952D01*
X120824476Y-165282571D01*
X120919714Y-165330190D01*
X121300666Y-165330190D01*
X120348285Y-165520666D02*
X119872095Y-165520666D01*
X120443523Y-165806380D02*
X120110190Y-164806380D01*
X119776857Y-165806380D01*
X119491142Y-164901619D02*
X119443523Y-164854000D01*
X119348285Y-164806380D01*
X119110190Y-164806380D01*
X119014952Y-164854000D01*
X118967333Y-164901619D01*
X118919714Y-164996857D01*
X118919714Y-165092095D01*
X118967333Y-165234952D01*
X119538761Y-165806380D01*
X118919714Y-165806380D01*
X116967333Y-165806380D02*
X116967333Y-164806380D01*
X116586380Y-164806380D01*
X116491142Y-164854000D01*
X116443523Y-164901619D01*
X116395904Y-164996857D01*
X116395904Y-165139714D01*
X116443523Y-165234952D01*
X116491142Y-165282571D01*
X116586380Y-165330190D01*
X116967333Y-165330190D01*
X115634000Y-165282571D02*
X115491142Y-165330190D01*
X115443523Y-165377809D01*
X115395904Y-165473047D01*
X115395904Y-165615904D01*
X115443523Y-165711142D01*
X115491142Y-165758761D01*
X115586380Y-165806380D01*
X115967333Y-165806380D01*
X115967333Y-164806380D01*
X115634000Y-164806380D01*
X115538761Y-164854000D01*
X115491142Y-164901619D01*
X115443523Y-164996857D01*
X115443523Y-165092095D01*
X115491142Y-165187333D01*
X115538761Y-165234952D01*
X115634000Y-165282571D01*
X115967333Y-165282571D01*
X114443523Y-165806380D02*
X115014952Y-165806380D01*
X114729238Y-165806380D02*
X114729238Y-164806380D01*
X114824476Y-164949238D01*
X114919714Y-165044476D01*
X115014952Y-165092095D01*
X111729238Y-165806380D02*
X111729238Y-164806380D01*
X111348285Y-164806380D01*
X111253047Y-164854000D01*
X111205428Y-164901619D01*
X111157809Y-164996857D01*
X111157809Y-165139714D01*
X111205428Y-165234952D01*
X111253047Y-165282571D01*
X111348285Y-165330190D01*
X111729238Y-165330190D01*
X110395904Y-165282571D02*
X110253047Y-165330190D01*
X110205428Y-165377809D01*
X110157809Y-165473047D01*
X110157809Y-165615904D01*
X110205428Y-165711142D01*
X110253047Y-165758761D01*
X110348285Y-165806380D01*
X110729238Y-165806380D01*
X110729238Y-164806380D01*
X110395904Y-164806380D01*
X110300666Y-164854000D01*
X110253047Y-164901619D01*
X110205428Y-164996857D01*
X110205428Y-165092095D01*
X110253047Y-165187333D01*
X110300666Y-165234952D01*
X110395904Y-165282571D01*
X110729238Y-165282571D01*
X109538761Y-164806380D02*
X109443523Y-164806380D01*
X109348285Y-164854000D01*
X109300666Y-164901619D01*
X109253047Y-164996857D01*
X109205428Y-165187333D01*
X109205428Y-165425428D01*
X109253047Y-165615904D01*
X109300666Y-165711142D01*
X109348285Y-165758761D01*
X109443523Y-165806380D01*
X109538761Y-165806380D01*
X109634000Y-165758761D01*
X109681619Y-165711142D01*
X109729238Y-165615904D01*
X109776857Y-165425428D01*
X109776857Y-165187333D01*
X109729238Y-164996857D01*
X109681619Y-164901619D01*
X109634000Y-164854000D01*
X109538761Y-164806380D01*
X104393904Y-153758000D02*
X104489142Y-153710380D01*
X104632000Y-153710380D01*
X104774857Y-153758000D01*
X104870095Y-153853238D01*
X104917714Y-153948476D01*
X104965333Y-154138952D01*
X104965333Y-154281809D01*
X104917714Y-154472285D01*
X104870095Y-154567523D01*
X104774857Y-154662761D01*
X104632000Y-154710380D01*
X104536761Y-154710380D01*
X104393904Y-154662761D01*
X104346285Y-154615142D01*
X104346285Y-154281809D01*
X104536761Y-154281809D01*
X103917714Y-154710380D02*
X103917714Y-153710380D01*
X103346285Y-154710380D01*
X103346285Y-153710380D01*
X102870095Y-154710380D02*
X102870095Y-153710380D01*
X102632000Y-153710380D01*
X102489142Y-153758000D01*
X102393904Y-153853238D01*
X102346285Y-153948476D01*
X102298666Y-154138952D01*
X102298666Y-154281809D01*
X102346285Y-154472285D01*
X102393904Y-154567523D01*
X102489142Y-154662761D01*
X102632000Y-154710380D01*
X102870095Y-154710380D01*
X104965333Y-155320380D02*
X104632000Y-156320380D01*
X104298666Y-155320380D01*
X103393904Y-156225142D02*
X103441523Y-156272761D01*
X103584380Y-156320380D01*
X103679619Y-156320380D01*
X103822476Y-156272761D01*
X103917714Y-156177523D01*
X103965333Y-156082285D01*
X104012952Y-155891809D01*
X104012952Y-155748952D01*
X103965333Y-155558476D01*
X103917714Y-155463238D01*
X103822476Y-155368000D01*
X103679619Y-155320380D01*
X103584380Y-155320380D01*
X103441523Y-155368000D01*
X103393904Y-155415619D01*
X102393904Y-156225142D02*
X102441523Y-156272761D01*
X102584380Y-156320380D01*
X102679619Y-156320380D01*
X102822476Y-156272761D01*
X102917714Y-156177523D01*
X102965333Y-156082285D01*
X103012952Y-155891809D01*
X103012952Y-155748952D01*
X102965333Y-155558476D01*
X102917714Y-155463238D01*
X102822476Y-155368000D01*
X102679619Y-155320380D01*
X102584380Y-155320380D01*
X102441523Y-155368000D01*
X102393904Y-155415619D01*
X105108190Y-156930380D02*
X104917714Y-156930380D01*
X104822476Y-156978000D01*
X104727238Y-157073238D01*
X104679619Y-157263714D01*
X104679619Y-157597047D01*
X104727238Y-157787523D01*
X104822476Y-157882761D01*
X104917714Y-157930380D01*
X105108190Y-157930380D01*
X105203428Y-157882761D01*
X105298666Y-157787523D01*
X105346285Y-157597047D01*
X105346285Y-157263714D01*
X105298666Y-157073238D01*
X105203428Y-156978000D01*
X105108190Y-156930380D01*
X104251047Y-156930380D02*
X104251047Y-157739904D01*
X104203428Y-157835142D01*
X104155809Y-157882761D01*
X104060571Y-157930380D01*
X103870095Y-157930380D01*
X103774857Y-157882761D01*
X103727238Y-157835142D01*
X103679619Y-157739904D01*
X103679619Y-156930380D01*
X103346285Y-156930380D02*
X102774857Y-156930380D01*
X103060571Y-157930380D02*
X103060571Y-156930380D01*
X101917714Y-157930380D02*
X102489142Y-157930380D01*
X102203428Y-157930380D02*
X102203428Y-156930380D01*
X102298666Y-157073238D01*
X102393904Y-157168476D01*
X102489142Y-157216095D01*
X104870095Y-159540380D02*
X104870095Y-158540380D01*
X104489142Y-158540380D01*
X104393904Y-158588000D01*
X104346285Y-158635619D01*
X104298666Y-158730857D01*
X104298666Y-158873714D01*
X104346285Y-158968952D01*
X104393904Y-159016571D01*
X104489142Y-159064190D01*
X104870095Y-159064190D01*
X103536761Y-159016571D02*
X103393904Y-159064190D01*
X103346285Y-159111809D01*
X103298666Y-159207047D01*
X103298666Y-159349904D01*
X103346285Y-159445142D01*
X103393904Y-159492761D01*
X103489142Y-159540380D01*
X103870095Y-159540380D01*
X103870095Y-158540380D01*
X103536761Y-158540380D01*
X103441523Y-158588000D01*
X103393904Y-158635619D01*
X103346285Y-158730857D01*
X103346285Y-158826095D01*
X103393904Y-158921333D01*
X103441523Y-158968952D01*
X103536761Y-159016571D01*
X103870095Y-159016571D01*
X102393904Y-158540380D02*
X102870095Y-158540380D01*
X102917714Y-159016571D01*
X102870095Y-158968952D01*
X102774857Y-158921333D01*
X102536761Y-158921333D01*
X102441523Y-158968952D01*
X102393904Y-159016571D01*
X102346285Y-159111809D01*
X102346285Y-159349904D01*
X102393904Y-159445142D01*
X102441523Y-159492761D01*
X102536761Y-159540380D01*
X102774857Y-159540380D01*
X102870095Y-159492761D01*
X102917714Y-159445142D01*
X104870095Y-161150380D02*
X104870095Y-160150380D01*
X104489142Y-160150380D01*
X104393904Y-160198000D01*
X104346285Y-160245619D01*
X104298666Y-160340857D01*
X104298666Y-160483714D01*
X104346285Y-160578952D01*
X104393904Y-160626571D01*
X104489142Y-160674190D01*
X104870095Y-160674190D01*
X103536761Y-160626571D02*
X103393904Y-160674190D01*
X103346285Y-160721809D01*
X103298666Y-160817047D01*
X103298666Y-160959904D01*
X103346285Y-161055142D01*
X103393904Y-161102761D01*
X103489142Y-161150380D01*
X103870095Y-161150380D01*
X103870095Y-160150380D01*
X103536761Y-160150380D01*
X103441523Y-160198000D01*
X103393904Y-160245619D01*
X103346285Y-160340857D01*
X103346285Y-160436095D01*
X103393904Y-160531333D01*
X103441523Y-160578952D01*
X103536761Y-160626571D01*
X103870095Y-160626571D01*
X102441523Y-160483714D02*
X102441523Y-161150380D01*
X102679619Y-160102761D02*
X102917714Y-160817047D01*
X102298666Y-160817047D01*
X104870095Y-162760380D02*
X104870095Y-161760380D01*
X104489142Y-161760380D01*
X104393904Y-161808000D01*
X104346285Y-161855619D01*
X104298666Y-161950857D01*
X104298666Y-162093714D01*
X104346285Y-162188952D01*
X104393904Y-162236571D01*
X104489142Y-162284190D01*
X104870095Y-162284190D01*
X103536761Y-162236571D02*
X103393904Y-162284190D01*
X103346285Y-162331809D01*
X103298666Y-162427047D01*
X103298666Y-162569904D01*
X103346285Y-162665142D01*
X103393904Y-162712761D01*
X103489142Y-162760380D01*
X103870095Y-162760380D01*
X103870095Y-161760380D01*
X103536761Y-161760380D01*
X103441523Y-161808000D01*
X103393904Y-161855619D01*
X103346285Y-161950857D01*
X103346285Y-162046095D01*
X103393904Y-162141333D01*
X103441523Y-162188952D01*
X103536761Y-162236571D01*
X103870095Y-162236571D01*
X102965333Y-161760380D02*
X102346285Y-161760380D01*
X102679619Y-162141333D01*
X102536761Y-162141333D01*
X102441523Y-162188952D01*
X102393904Y-162236571D01*
X102346285Y-162331809D01*
X102346285Y-162569904D01*
X102393904Y-162665142D01*
X102441523Y-162712761D01*
X102536761Y-162760380D01*
X102822476Y-162760380D01*
X102917714Y-162712761D01*
X102965333Y-162665142D01*
X104870095Y-164370380D02*
X104870095Y-163370380D01*
X104489142Y-163370380D01*
X104393904Y-163418000D01*
X104346285Y-163465619D01*
X104298666Y-163560857D01*
X104298666Y-163703714D01*
X104346285Y-163798952D01*
X104393904Y-163846571D01*
X104489142Y-163894190D01*
X104870095Y-163894190D01*
X103536761Y-163846571D02*
X103393904Y-163894190D01*
X103346285Y-163941809D01*
X103298666Y-164037047D01*
X103298666Y-164179904D01*
X103346285Y-164275142D01*
X103393904Y-164322761D01*
X103489142Y-164370380D01*
X103870095Y-164370380D01*
X103870095Y-163370380D01*
X103536761Y-163370380D01*
X103441523Y-163418000D01*
X103393904Y-163465619D01*
X103346285Y-163560857D01*
X103346285Y-163656095D01*
X103393904Y-163751333D01*
X103441523Y-163798952D01*
X103536761Y-163846571D01*
X103870095Y-163846571D01*
X102346285Y-164370380D02*
X102917714Y-164370380D01*
X102632000Y-164370380D02*
X102632000Y-163370380D01*
X102727238Y-163513238D01*
X102822476Y-163608476D01*
X102917714Y-163656095D01*
X104870095Y-165980380D02*
X104870095Y-164980380D01*
X104489142Y-164980380D01*
X104393904Y-165028000D01*
X104346285Y-165075619D01*
X104298666Y-165170857D01*
X104298666Y-165313714D01*
X104346285Y-165408952D01*
X104393904Y-165456571D01*
X104489142Y-165504190D01*
X104870095Y-165504190D01*
X103536761Y-165456571D02*
X103393904Y-165504190D01*
X103346285Y-165551809D01*
X103298666Y-165647047D01*
X103298666Y-165789904D01*
X103346285Y-165885142D01*
X103393904Y-165932761D01*
X103489142Y-165980380D01*
X103870095Y-165980380D01*
X103870095Y-164980380D01*
X103536761Y-164980380D01*
X103441523Y-165028000D01*
X103393904Y-165075619D01*
X103346285Y-165170857D01*
X103346285Y-165266095D01*
X103393904Y-165361333D01*
X103441523Y-165408952D01*
X103536761Y-165456571D01*
X103870095Y-165456571D01*
X102679619Y-164980380D02*
X102584380Y-164980380D01*
X102489142Y-165028000D01*
X102441523Y-165075619D01*
X102393904Y-165170857D01*
X102346285Y-165361333D01*
X102346285Y-165599428D01*
X102393904Y-165789904D01*
X102441523Y-165885142D01*
X102489142Y-165932761D01*
X102584380Y-165980380D01*
X102679619Y-165980380D01*
X102774857Y-165932761D01*
X102822476Y-165885142D01*
X102870095Y-165789904D01*
X102917714Y-165599428D01*
X102917714Y-165361333D01*
X102870095Y-165170857D01*
X102822476Y-165075619D01*
X102774857Y-165028000D01*
X102679619Y-164980380D01*
X134628000Y-169799095D02*
X134580380Y-169703857D01*
X134580380Y-169561000D01*
X134628000Y-169418142D01*
X134723238Y-169322904D01*
X134818476Y-169275285D01*
X135008952Y-169227666D01*
X135151809Y-169227666D01*
X135342285Y-169275285D01*
X135437523Y-169322904D01*
X135532761Y-169418142D01*
X135580380Y-169561000D01*
X135580380Y-169656238D01*
X135532761Y-169799095D01*
X135485142Y-169846714D01*
X135151809Y-169846714D01*
X135151809Y-169656238D01*
X135580380Y-170275285D02*
X134580380Y-170275285D01*
X135580380Y-170846714D01*
X134580380Y-170846714D01*
X135580380Y-171322904D02*
X134580380Y-171322904D01*
X134580380Y-171561000D01*
X134628000Y-171703857D01*
X134723238Y-171799095D01*
X134818476Y-171846714D01*
X135008952Y-171894333D01*
X135151809Y-171894333D01*
X135342285Y-171846714D01*
X135437523Y-171799095D01*
X135532761Y-171703857D01*
X135580380Y-171561000D01*
X135580380Y-171322904D01*
%TO.C,R20*%
X116116380Y-153384642D02*
X115640190Y-153051309D01*
X116116380Y-152813214D02*
X115116380Y-152813214D01*
X115116380Y-153194166D01*
X115164000Y-153289404D01*
X115211619Y-153337023D01*
X115306857Y-153384642D01*
X115449714Y-153384642D01*
X115544952Y-153337023D01*
X115592571Y-153289404D01*
X115640190Y-153194166D01*
X115640190Y-152813214D01*
X115211619Y-153765595D02*
X115164000Y-153813214D01*
X115116380Y-153908452D01*
X115116380Y-154146547D01*
X115164000Y-154241785D01*
X115211619Y-154289404D01*
X115306857Y-154337023D01*
X115402095Y-154337023D01*
X115544952Y-154289404D01*
X116116380Y-153717976D01*
X116116380Y-154337023D01*
X115116380Y-154956071D02*
X115116380Y-155051309D01*
X115164000Y-155146547D01*
X115211619Y-155194166D01*
X115306857Y-155241785D01*
X115497333Y-155289404D01*
X115735428Y-155289404D01*
X115925904Y-155241785D01*
X116021142Y-155194166D01*
X116068761Y-155146547D01*
X116116380Y-155051309D01*
X116116380Y-154956071D01*
X116068761Y-154860833D01*
X116021142Y-154813214D01*
X115925904Y-154765595D01*
X115735428Y-154717976D01*
X115497333Y-154717976D01*
X115306857Y-154765595D01*
X115211619Y-154813214D01*
X115164000Y-154860833D01*
X115116380Y-154956071D01*
%TO.C,R2*%
X132057380Y-132167333D02*
X131581190Y-131834000D01*
X132057380Y-131595904D02*
X131057380Y-131595904D01*
X131057380Y-131976857D01*
X131105000Y-132072095D01*
X131152619Y-132119714D01*
X131247857Y-132167333D01*
X131390714Y-132167333D01*
X131485952Y-132119714D01*
X131533571Y-132072095D01*
X131581190Y-131976857D01*
X131581190Y-131595904D01*
X131152619Y-132548285D02*
X131105000Y-132595904D01*
X131057380Y-132691142D01*
X131057380Y-132929238D01*
X131105000Y-133024476D01*
X131152619Y-133072095D01*
X131247857Y-133119714D01*
X131343095Y-133119714D01*
X131485952Y-133072095D01*
X132057380Y-132500666D01*
X132057380Y-133119714D01*
%TO.C,U2*%
X99313904Y-131122380D02*
X99313904Y-131931904D01*
X99266285Y-132027142D01*
X99218666Y-132074761D01*
X99123428Y-132122380D01*
X98932952Y-132122380D01*
X98837714Y-132074761D01*
X98790095Y-132027142D01*
X98742476Y-131931904D01*
X98742476Y-131122380D01*
X98313904Y-131217619D02*
X98266285Y-131170000D01*
X98171047Y-131122380D01*
X97932952Y-131122380D01*
X97837714Y-131170000D01*
X97790095Y-131217619D01*
X97742476Y-131312857D01*
X97742476Y-131408095D01*
X97790095Y-131550952D01*
X98361523Y-132122380D01*
X97742476Y-132122380D01*
%TO.C,Q3*%
X121959619Y-146970761D02*
X121912000Y-146875523D01*
X121816761Y-146780285D01*
X121673904Y-146637428D01*
X121626285Y-146542190D01*
X121626285Y-146446952D01*
X121864380Y-146494571D02*
X121816761Y-146399333D01*
X121721523Y-146304095D01*
X121531047Y-146256476D01*
X121197714Y-146256476D01*
X121007238Y-146304095D01*
X120912000Y-146399333D01*
X120864380Y-146494571D01*
X120864380Y-146685047D01*
X120912000Y-146780285D01*
X121007238Y-146875523D01*
X121197714Y-146923142D01*
X121531047Y-146923142D01*
X121721523Y-146875523D01*
X121816761Y-146780285D01*
X121864380Y-146685047D01*
X121864380Y-146494571D01*
X120864380Y-147256476D02*
X120864380Y-147875523D01*
X121245333Y-147542190D01*
X121245333Y-147685047D01*
X121292952Y-147780285D01*
X121340571Y-147827904D01*
X121435809Y-147875523D01*
X121673904Y-147875523D01*
X121769142Y-147827904D01*
X121816761Y-147780285D01*
X121864380Y-147685047D01*
X121864380Y-147399333D01*
X121816761Y-147304095D01*
X121769142Y-147256476D01*
%TO.C,C7*%
X132400166Y-143773142D02*
X132447785Y-143820761D01*
X132590642Y-143868380D01*
X132685880Y-143868380D01*
X132828738Y-143820761D01*
X132923976Y-143725523D01*
X132971595Y-143630285D01*
X133019214Y-143439809D01*
X133019214Y-143296952D01*
X132971595Y-143106476D01*
X132923976Y-143011238D01*
X132828738Y-142916000D01*
X132685880Y-142868380D01*
X132590642Y-142868380D01*
X132447785Y-142916000D01*
X132400166Y-142963619D01*
X132066833Y-142868380D02*
X131400166Y-142868380D01*
X131828738Y-143868380D01*
%TO.C,Q4*%
X128111238Y-126150619D02*
X128206476Y-126103000D01*
X128301714Y-126007761D01*
X128444571Y-125864904D01*
X128539809Y-125817285D01*
X128635047Y-125817285D01*
X128587428Y-126055380D02*
X128682666Y-126007761D01*
X128777904Y-125912523D01*
X128825523Y-125722047D01*
X128825523Y-125388714D01*
X128777904Y-125198238D01*
X128682666Y-125103000D01*
X128587428Y-125055380D01*
X128396952Y-125055380D01*
X128301714Y-125103000D01*
X128206476Y-125198238D01*
X128158857Y-125388714D01*
X128158857Y-125722047D01*
X128206476Y-125912523D01*
X128301714Y-126007761D01*
X128396952Y-126055380D01*
X128587428Y-126055380D01*
X127301714Y-125388714D02*
X127301714Y-126055380D01*
X127539809Y-125007761D02*
X127777904Y-125722047D01*
X127158857Y-125722047D01*
%TO.C,R3*%
X114338380Y-145375333D02*
X113862190Y-145042000D01*
X114338380Y-144803904D02*
X113338380Y-144803904D01*
X113338380Y-145184857D01*
X113386000Y-145280095D01*
X113433619Y-145327714D01*
X113528857Y-145375333D01*
X113671714Y-145375333D01*
X113766952Y-145327714D01*
X113814571Y-145280095D01*
X113862190Y-145184857D01*
X113862190Y-144803904D01*
X113338380Y-145708666D02*
X113338380Y-146327714D01*
X113719333Y-145994380D01*
X113719333Y-146137238D01*
X113766952Y-146232476D01*
X113814571Y-146280095D01*
X113909809Y-146327714D01*
X114147904Y-146327714D01*
X114243142Y-146280095D01*
X114290761Y-146232476D01*
X114338380Y-146137238D01*
X114338380Y-145851523D01*
X114290761Y-145756285D01*
X114243142Y-145708666D01*
%TO.C,U4*%
X115061904Y-127557380D02*
X115061904Y-128366904D01*
X115014285Y-128462142D01*
X114966666Y-128509761D01*
X114871428Y-128557380D01*
X114680952Y-128557380D01*
X114585714Y-128509761D01*
X114538095Y-128462142D01*
X114490476Y-128366904D01*
X114490476Y-127557380D01*
X113585714Y-127890714D02*
X113585714Y-128557380D01*
X113823809Y-127509761D02*
X114061904Y-128224047D01*
X113442857Y-128224047D01*
%TO.C,R19*%
X123990380Y-152519142D02*
X123514190Y-152185809D01*
X123990380Y-151947714D02*
X122990380Y-151947714D01*
X122990380Y-152328666D01*
X123038000Y-152423904D01*
X123085619Y-152471523D01*
X123180857Y-152519142D01*
X123323714Y-152519142D01*
X123418952Y-152471523D01*
X123466571Y-152423904D01*
X123514190Y-152328666D01*
X123514190Y-151947714D01*
X123990380Y-153471523D02*
X123990380Y-152900095D01*
X123990380Y-153185809D02*
X122990380Y-153185809D01*
X123133238Y-153090571D01*
X123228476Y-152995333D01*
X123276095Y-152900095D01*
X123990380Y-153947714D02*
X123990380Y-154138190D01*
X123942761Y-154233428D01*
X123895142Y-154281047D01*
X123752285Y-154376285D01*
X123561809Y-154423904D01*
X123180857Y-154423904D01*
X123085619Y-154376285D01*
X123038000Y-154328666D01*
X122990380Y-154233428D01*
X122990380Y-154042952D01*
X123038000Y-153947714D01*
X123085619Y-153900095D01*
X123180857Y-153852476D01*
X123418952Y-153852476D01*
X123514190Y-153900095D01*
X123561809Y-153947714D01*
X123609428Y-154042952D01*
X123609428Y-154233428D01*
X123561809Y-154328666D01*
X123514190Y-154376285D01*
X123418952Y-154423904D01*
%TO.C,R11*%
X97734380Y-136136142D02*
X97258190Y-135802809D01*
X97734380Y-135564714D02*
X96734380Y-135564714D01*
X96734380Y-135945666D01*
X96782000Y-136040904D01*
X96829619Y-136088523D01*
X96924857Y-136136142D01*
X97067714Y-136136142D01*
X97162952Y-136088523D01*
X97210571Y-136040904D01*
X97258190Y-135945666D01*
X97258190Y-135564714D01*
X97734380Y-137088523D02*
X97734380Y-136517095D01*
X97734380Y-136802809D02*
X96734380Y-136802809D01*
X96877238Y-136707571D01*
X96972476Y-136612333D01*
X97020095Y-136517095D01*
X97734380Y-138040904D02*
X97734380Y-137469476D01*
X97734380Y-137755190D02*
X96734380Y-137755190D01*
X96877238Y-137659952D01*
X96972476Y-137564714D01*
X97020095Y-137469476D01*
%TO.C,R12*%
X121610380Y-128897142D02*
X121134190Y-128563809D01*
X121610380Y-128325714D02*
X120610380Y-128325714D01*
X120610380Y-128706666D01*
X120658000Y-128801904D01*
X120705619Y-128849523D01*
X120800857Y-128897142D01*
X120943714Y-128897142D01*
X121038952Y-128849523D01*
X121086571Y-128801904D01*
X121134190Y-128706666D01*
X121134190Y-128325714D01*
X121610380Y-129849523D02*
X121610380Y-129278095D01*
X121610380Y-129563809D02*
X120610380Y-129563809D01*
X120753238Y-129468571D01*
X120848476Y-129373333D01*
X120896095Y-129278095D01*
X120705619Y-130230476D02*
X120658000Y-130278095D01*
X120610380Y-130373333D01*
X120610380Y-130611428D01*
X120658000Y-130706666D01*
X120705619Y-130754285D01*
X120800857Y-130801904D01*
X120896095Y-130801904D01*
X121038952Y-130754285D01*
X121610380Y-130182857D01*
X121610380Y-130801904D01*
%TO.C,R18*%
X113068380Y-152876642D02*
X112592190Y-152543309D01*
X113068380Y-152305214D02*
X112068380Y-152305214D01*
X112068380Y-152686166D01*
X112116000Y-152781404D01*
X112163619Y-152829023D01*
X112258857Y-152876642D01*
X112401714Y-152876642D01*
X112496952Y-152829023D01*
X112544571Y-152781404D01*
X112592190Y-152686166D01*
X112592190Y-152305214D01*
X113068380Y-153829023D02*
X113068380Y-153257595D01*
X113068380Y-153543309D02*
X112068380Y-153543309D01*
X112211238Y-153448071D01*
X112306476Y-153352833D01*
X112354095Y-153257595D01*
X112496952Y-154400452D02*
X112449333Y-154305214D01*
X112401714Y-154257595D01*
X112306476Y-154209976D01*
X112258857Y-154209976D01*
X112163619Y-154257595D01*
X112116000Y-154305214D01*
X112068380Y-154400452D01*
X112068380Y-154590928D01*
X112116000Y-154686166D01*
X112163619Y-154733785D01*
X112258857Y-154781404D01*
X112306476Y-154781404D01*
X112401714Y-154733785D01*
X112449333Y-154686166D01*
X112496952Y-154590928D01*
X112496952Y-154400452D01*
X112544571Y-154305214D01*
X112592190Y-154257595D01*
X112687428Y-154209976D01*
X112877904Y-154209976D01*
X112973142Y-154257595D01*
X113020761Y-154305214D01*
X113068380Y-154400452D01*
X113068380Y-154590928D01*
X113020761Y-154686166D01*
X112973142Y-154733785D01*
X112877904Y-154781404D01*
X112687428Y-154781404D01*
X112592190Y-154733785D01*
X112544571Y-154686166D01*
X112496952Y-154590928D01*
%TO.C,R16*%
X106022380Y-142359142D02*
X105546190Y-142025809D01*
X106022380Y-141787714D02*
X105022380Y-141787714D01*
X105022380Y-142168666D01*
X105070000Y-142263904D01*
X105117619Y-142311523D01*
X105212857Y-142359142D01*
X105355714Y-142359142D01*
X105450952Y-142311523D01*
X105498571Y-142263904D01*
X105546190Y-142168666D01*
X105546190Y-141787714D01*
X106022380Y-143311523D02*
X106022380Y-142740095D01*
X106022380Y-143025809D02*
X105022380Y-143025809D01*
X105165238Y-142930571D01*
X105260476Y-142835333D01*
X105308095Y-142740095D01*
X105022380Y-144168666D02*
X105022380Y-143978190D01*
X105070000Y-143882952D01*
X105117619Y-143835333D01*
X105260476Y-143740095D01*
X105450952Y-143692476D01*
X105831904Y-143692476D01*
X105927142Y-143740095D01*
X105974761Y-143787714D01*
X106022380Y-143882952D01*
X106022380Y-144073428D01*
X105974761Y-144168666D01*
X105927142Y-144216285D01*
X105831904Y-144263904D01*
X105593809Y-144263904D01*
X105498571Y-144216285D01*
X105450952Y-144168666D01*
X105403333Y-144073428D01*
X105403333Y-143882952D01*
X105450952Y-143787714D01*
X105498571Y-143740095D01*
X105593809Y-143692476D01*
%TO.C,R4*%
X124404380Y-129246333D02*
X123928190Y-128913000D01*
X124404380Y-128674904D02*
X123404380Y-128674904D01*
X123404380Y-129055857D01*
X123452000Y-129151095D01*
X123499619Y-129198714D01*
X123594857Y-129246333D01*
X123737714Y-129246333D01*
X123832952Y-129198714D01*
X123880571Y-129151095D01*
X123928190Y-129055857D01*
X123928190Y-128674904D01*
X123737714Y-130103476D02*
X124404380Y-130103476D01*
X123356761Y-129865380D02*
X124071047Y-129627285D01*
X124071047Y-130246333D01*
%TO.C,C9*%
X131073142Y-157694333D02*
X131120761Y-157646714D01*
X131168380Y-157503857D01*
X131168380Y-157408619D01*
X131120761Y-157265761D01*
X131025523Y-157170523D01*
X130930285Y-157122904D01*
X130739809Y-157075285D01*
X130596952Y-157075285D01*
X130406476Y-157122904D01*
X130311238Y-157170523D01*
X130216000Y-157265761D01*
X130168380Y-157408619D01*
X130168380Y-157503857D01*
X130216000Y-157646714D01*
X130263619Y-157694333D01*
X131168380Y-158170523D02*
X131168380Y-158361000D01*
X131120761Y-158456238D01*
X131073142Y-158503857D01*
X130930285Y-158599095D01*
X130739809Y-158646714D01*
X130358857Y-158646714D01*
X130263619Y-158599095D01*
X130216000Y-158551476D01*
X130168380Y-158456238D01*
X130168380Y-158265761D01*
X130216000Y-158170523D01*
X130263619Y-158122904D01*
X130358857Y-158075285D01*
X130596952Y-158075285D01*
X130692190Y-158122904D01*
X130739809Y-158170523D01*
X130787428Y-158265761D01*
X130787428Y-158456238D01*
X130739809Y-158551476D01*
X130692190Y-158599095D01*
X130596952Y-158646714D01*
%TO.C,D2*%
X96242095Y-144010380D02*
X96242095Y-143010380D01*
X96004000Y-143010380D01*
X95861142Y-143058000D01*
X95765904Y-143153238D01*
X95718285Y-143248476D01*
X95670666Y-143438952D01*
X95670666Y-143581809D01*
X95718285Y-143772285D01*
X95765904Y-143867523D01*
X95861142Y-143962761D01*
X96004000Y-144010380D01*
X96242095Y-144010380D01*
X95289714Y-143105619D02*
X95242095Y-143058000D01*
X95146857Y-143010380D01*
X94908761Y-143010380D01*
X94813523Y-143058000D01*
X94765904Y-143105619D01*
X94718285Y-143200857D01*
X94718285Y-143296095D01*
X94765904Y-143438952D01*
X95337333Y-144010380D01*
X94718285Y-144010380D01*
%TO.C,C5*%
X132627666Y-137931142D02*
X132675285Y-137978761D01*
X132818142Y-138026380D01*
X132913380Y-138026380D01*
X133056238Y-137978761D01*
X133151476Y-137883523D01*
X133199095Y-137788285D01*
X133246714Y-137597809D01*
X133246714Y-137454952D01*
X133199095Y-137264476D01*
X133151476Y-137169238D01*
X133056238Y-137074000D01*
X132913380Y-137026380D01*
X132818142Y-137026380D01*
X132675285Y-137074000D01*
X132627666Y-137121619D01*
X131722904Y-137026380D02*
X132199095Y-137026380D01*
X132246714Y-137502571D01*
X132199095Y-137454952D01*
X132103857Y-137407333D01*
X131865761Y-137407333D01*
X131770523Y-137454952D01*
X131722904Y-137502571D01*
X131675285Y-137597809D01*
X131675285Y-137835904D01*
X131722904Y-137931142D01*
X131770523Y-137978761D01*
X131865761Y-138026380D01*
X132103857Y-138026380D01*
X132199095Y-137978761D01*
X132246714Y-137931142D01*
%TO.C,R17*%
X121196380Y-152519142D02*
X120720190Y-152185809D01*
X121196380Y-151947714D02*
X120196380Y-151947714D01*
X120196380Y-152328666D01*
X120244000Y-152423904D01*
X120291619Y-152471523D01*
X120386857Y-152519142D01*
X120529714Y-152519142D01*
X120624952Y-152471523D01*
X120672571Y-152423904D01*
X120720190Y-152328666D01*
X120720190Y-151947714D01*
X121196380Y-153471523D02*
X121196380Y-152900095D01*
X121196380Y-153185809D02*
X120196380Y-153185809D01*
X120339238Y-153090571D01*
X120434476Y-152995333D01*
X120482095Y-152900095D01*
X120196380Y-153804857D02*
X120196380Y-154471523D01*
X121196380Y-154042952D01*
%TO.C,Q1*%
X136239238Y-125769619D02*
X136334476Y-125722000D01*
X136429714Y-125626761D01*
X136572571Y-125483904D01*
X136667809Y-125436285D01*
X136763047Y-125436285D01*
X136715428Y-125674380D02*
X136810666Y-125626761D01*
X136905904Y-125531523D01*
X136953523Y-125341047D01*
X136953523Y-125007714D01*
X136905904Y-124817238D01*
X136810666Y-124722000D01*
X136715428Y-124674380D01*
X136524952Y-124674380D01*
X136429714Y-124722000D01*
X136334476Y-124817238D01*
X136286857Y-125007714D01*
X136286857Y-125341047D01*
X136334476Y-125531523D01*
X136429714Y-125626761D01*
X136524952Y-125674380D01*
X136715428Y-125674380D01*
X135334476Y-125674380D02*
X135905904Y-125674380D01*
X135620190Y-125674380D02*
X135620190Y-124674380D01*
X135715428Y-124817238D01*
X135810666Y-124912476D01*
X135905904Y-124960095D01*
%TO.C,D3*%
X136492095Y-159916380D02*
X136492095Y-158916380D01*
X136254000Y-158916380D01*
X136111142Y-158964000D01*
X136015904Y-159059238D01*
X135968285Y-159154476D01*
X135920666Y-159344952D01*
X135920666Y-159487809D01*
X135968285Y-159678285D01*
X136015904Y-159773523D01*
X136111142Y-159868761D01*
X136254000Y-159916380D01*
X136492095Y-159916380D01*
X135587333Y-158916380D02*
X134968285Y-158916380D01*
X135301619Y-159297333D01*
X135158761Y-159297333D01*
X135063523Y-159344952D01*
X135015904Y-159392571D01*
X134968285Y-159487809D01*
X134968285Y-159725904D01*
X135015904Y-159821142D01*
X135063523Y-159868761D01*
X135158761Y-159916380D01*
X135444476Y-159916380D01*
X135539714Y-159868761D01*
X135587333Y-159821142D01*
%TO.C,C4*%
X106185166Y-130184142D02*
X106232785Y-130231761D01*
X106375642Y-130279380D01*
X106470880Y-130279380D01*
X106613738Y-130231761D01*
X106708976Y-130136523D01*
X106756595Y-130041285D01*
X106804214Y-129850809D01*
X106804214Y-129707952D01*
X106756595Y-129517476D01*
X106708976Y-129422238D01*
X106613738Y-129327000D01*
X106470880Y-129279380D01*
X106375642Y-129279380D01*
X106232785Y-129327000D01*
X106185166Y-129374619D01*
X105328023Y-129612714D02*
X105328023Y-130279380D01*
X105566119Y-129231761D02*
X105804214Y-129946047D01*
X105185166Y-129946047D01*
%TO.C,R1*%
X135994380Y-132167333D02*
X135518190Y-131834000D01*
X135994380Y-131595904D02*
X134994380Y-131595904D01*
X134994380Y-131976857D01*
X135042000Y-132072095D01*
X135089619Y-132119714D01*
X135184857Y-132167333D01*
X135327714Y-132167333D01*
X135422952Y-132119714D01*
X135470571Y-132072095D01*
X135518190Y-131976857D01*
X135518190Y-131595904D01*
X135994380Y-133119714D02*
X135994380Y-132548285D01*
X135994380Y-132834000D02*
X134994380Y-132834000D01*
X135137238Y-132738761D01*
X135232476Y-132643523D01*
X135280095Y-132548285D01*
%TO.C,R27*%
X98844380Y-150995142D02*
X98368190Y-150661809D01*
X98844380Y-150423714D02*
X97844380Y-150423714D01*
X97844380Y-150804666D01*
X97892000Y-150899904D01*
X97939619Y-150947523D01*
X98034857Y-150995142D01*
X98177714Y-150995142D01*
X98272952Y-150947523D01*
X98320571Y-150899904D01*
X98368190Y-150804666D01*
X98368190Y-150423714D01*
X97939619Y-151376095D02*
X97892000Y-151423714D01*
X97844380Y-151518952D01*
X97844380Y-151757047D01*
X97892000Y-151852285D01*
X97939619Y-151899904D01*
X98034857Y-151947523D01*
X98130095Y-151947523D01*
X98272952Y-151899904D01*
X98844380Y-151328476D01*
X98844380Y-151947523D01*
X97844380Y-152280857D02*
X97844380Y-152947523D01*
X98844380Y-152518952D01*
%TO.C,R5*%
X89733380Y-128865333D02*
X89257190Y-128532000D01*
X89733380Y-128293904D02*
X88733380Y-128293904D01*
X88733380Y-128674857D01*
X88781000Y-128770095D01*
X88828619Y-128817714D01*
X88923857Y-128865333D01*
X89066714Y-128865333D01*
X89161952Y-128817714D01*
X89209571Y-128770095D01*
X89257190Y-128674857D01*
X89257190Y-128293904D01*
X88733380Y-129770095D02*
X88733380Y-129293904D01*
X89209571Y-129246285D01*
X89161952Y-129293904D01*
X89114333Y-129389142D01*
X89114333Y-129627238D01*
X89161952Y-129722476D01*
X89209571Y-129770095D01*
X89304809Y-129817714D01*
X89542904Y-129817714D01*
X89638142Y-129770095D01*
X89685761Y-129722476D01*
X89733380Y-129627238D01*
X89733380Y-129389142D01*
X89685761Y-129293904D01*
X89638142Y-129246285D01*
%TO.C,C1*%
X98749142Y-140448833D02*
X98796761Y-140401214D01*
X98844380Y-140258357D01*
X98844380Y-140163119D01*
X98796761Y-140020261D01*
X98701523Y-139925023D01*
X98606285Y-139877404D01*
X98415809Y-139829785D01*
X98272952Y-139829785D01*
X98082476Y-139877404D01*
X97987238Y-139925023D01*
X97892000Y-140020261D01*
X97844380Y-140163119D01*
X97844380Y-140258357D01*
X97892000Y-140401214D01*
X97939619Y-140448833D01*
X98844380Y-141401214D02*
X98844380Y-140829785D01*
X98844380Y-141115500D02*
X97844380Y-141115500D01*
X97987238Y-141020261D01*
X98082476Y-140925023D01*
X98130095Y-140829785D01*
%TO.C,U5*%
X119633904Y-154718380D02*
X119633904Y-155527904D01*
X119586285Y-155623142D01*
X119538666Y-155670761D01*
X119443428Y-155718380D01*
X119252952Y-155718380D01*
X119157714Y-155670761D01*
X119110095Y-155623142D01*
X119062476Y-155527904D01*
X119062476Y-154718380D01*
X118110095Y-154718380D02*
X118586285Y-154718380D01*
X118633904Y-155194571D01*
X118586285Y-155146952D01*
X118491047Y-155099333D01*
X118252952Y-155099333D01*
X118157714Y-155146952D01*
X118110095Y-155194571D01*
X118062476Y-155289809D01*
X118062476Y-155527904D01*
X118110095Y-155623142D01*
X118157714Y-155670761D01*
X118252952Y-155718380D01*
X118491047Y-155718380D01*
X118586285Y-155670761D01*
X118633904Y-155623142D01*
%TO.C,C6*%
X127013166Y-143773142D02*
X127060785Y-143820761D01*
X127203642Y-143868380D01*
X127298880Y-143868380D01*
X127441738Y-143820761D01*
X127536976Y-143725523D01*
X127584595Y-143630285D01*
X127632214Y-143439809D01*
X127632214Y-143296952D01*
X127584595Y-143106476D01*
X127536976Y-143011238D01*
X127441738Y-142916000D01*
X127298880Y-142868380D01*
X127203642Y-142868380D01*
X127060785Y-142916000D01*
X127013166Y-142963619D01*
X126156023Y-142868380D02*
X126346500Y-142868380D01*
X126441738Y-142916000D01*
X126489357Y-142963619D01*
X126584595Y-143106476D01*
X126632214Y-143296952D01*
X126632214Y-143677904D01*
X126584595Y-143773142D01*
X126536976Y-143820761D01*
X126441738Y-143868380D01*
X126251261Y-143868380D01*
X126156023Y-143820761D01*
X126108404Y-143773142D01*
X126060785Y-143677904D01*
X126060785Y-143439809D01*
X126108404Y-143344571D01*
X126156023Y-143296952D01*
X126251261Y-143249333D01*
X126441738Y-143249333D01*
X126536976Y-143296952D01*
X126584595Y-143344571D01*
X126632214Y-143439809D01*
%TO.C,J5*%
X107546380Y-134302666D02*
X108260666Y-134302666D01*
X108403523Y-134255047D01*
X108498761Y-134159809D01*
X108546380Y-134016952D01*
X108546380Y-133921714D01*
X107546380Y-135255047D02*
X107546380Y-134778857D01*
X108022571Y-134731238D01*
X107974952Y-134778857D01*
X107927333Y-134874095D01*
X107927333Y-135112190D01*
X107974952Y-135207428D01*
X108022571Y-135255047D01*
X108117809Y-135302666D01*
X108355904Y-135302666D01*
X108451142Y-135255047D01*
X108498761Y-135207428D01*
X108546380Y-135112190D01*
X108546380Y-134874095D01*
X108498761Y-134778857D01*
X108451142Y-134731238D01*
%TO.C,C2*%
X92495666Y-125071142D02*
X92543285Y-125118761D01*
X92686142Y-125166380D01*
X92781380Y-125166380D01*
X92924238Y-125118761D01*
X93019476Y-125023523D01*
X93067095Y-124928285D01*
X93114714Y-124737809D01*
X93114714Y-124594952D01*
X93067095Y-124404476D01*
X93019476Y-124309238D01*
X92924238Y-124214000D01*
X92781380Y-124166380D01*
X92686142Y-124166380D01*
X92543285Y-124214000D01*
X92495666Y-124261619D01*
X92114714Y-124261619D02*
X92067095Y-124214000D01*
X91971857Y-124166380D01*
X91733761Y-124166380D01*
X91638523Y-124214000D01*
X91590904Y-124261619D01*
X91543285Y-124356857D01*
X91543285Y-124452095D01*
X91590904Y-124594952D01*
X92162333Y-125166380D01*
X91543285Y-125166380D01*
%TO.C,R9*%
X100496666Y-134818380D02*
X100830000Y-134342190D01*
X101068095Y-134818380D02*
X101068095Y-133818380D01*
X100687142Y-133818380D01*
X100591904Y-133866000D01*
X100544285Y-133913619D01*
X100496666Y-134008857D01*
X100496666Y-134151714D01*
X100544285Y-134246952D01*
X100591904Y-134294571D01*
X100687142Y-134342190D01*
X101068095Y-134342190D01*
X100020476Y-134818380D02*
X99830000Y-134818380D01*
X99734761Y-134770761D01*
X99687142Y-134723142D01*
X99591904Y-134580285D01*
X99544285Y-134389809D01*
X99544285Y-134008857D01*
X99591904Y-133913619D01*
X99639523Y-133866000D01*
X99734761Y-133818380D01*
X99925238Y-133818380D01*
X100020476Y-133866000D01*
X100068095Y-133913619D01*
X100115714Y-134008857D01*
X100115714Y-134246952D01*
X100068095Y-134342190D01*
X100020476Y-134389809D01*
X99925238Y-134437428D01*
X99734761Y-134437428D01*
X99639523Y-134389809D01*
X99591904Y-134342190D01*
X99544285Y-134246952D01*
%TO.C,J1*%
X93043333Y-130897380D02*
X93043333Y-131611666D01*
X93090952Y-131754523D01*
X93186190Y-131849761D01*
X93329047Y-131897380D01*
X93424285Y-131897380D01*
X92043333Y-131897380D02*
X92614761Y-131897380D01*
X92329047Y-131897380D02*
X92329047Y-130897380D01*
X92424285Y-131040238D01*
X92519523Y-131135476D01*
X92614761Y-131183095D01*
%TO.C,Q2*%
X132175238Y-125896619D02*
X132270476Y-125849000D01*
X132365714Y-125753761D01*
X132508571Y-125610904D01*
X132603809Y-125563285D01*
X132699047Y-125563285D01*
X132651428Y-125801380D02*
X132746666Y-125753761D01*
X132841904Y-125658523D01*
X132889523Y-125468047D01*
X132889523Y-125134714D01*
X132841904Y-124944238D01*
X132746666Y-124849000D01*
X132651428Y-124801380D01*
X132460952Y-124801380D01*
X132365714Y-124849000D01*
X132270476Y-124944238D01*
X132222857Y-125134714D01*
X132222857Y-125468047D01*
X132270476Y-125658523D01*
X132365714Y-125753761D01*
X132460952Y-125801380D01*
X132651428Y-125801380D01*
X131841904Y-124896619D02*
X131794285Y-124849000D01*
X131699047Y-124801380D01*
X131460952Y-124801380D01*
X131365714Y-124849000D01*
X131318095Y-124896619D01*
X131270476Y-124991857D01*
X131270476Y-125087095D01*
X131318095Y-125229952D01*
X131889523Y-125801380D01*
X131270476Y-125801380D01*
%TO.C,C10*%
X131073142Y-153561642D02*
X131120761Y-153514023D01*
X131168380Y-153371166D01*
X131168380Y-153275928D01*
X131120761Y-153133071D01*
X131025523Y-153037833D01*
X130930285Y-152990214D01*
X130739809Y-152942595D01*
X130596952Y-152942595D01*
X130406476Y-152990214D01*
X130311238Y-153037833D01*
X130216000Y-153133071D01*
X130168380Y-153275928D01*
X130168380Y-153371166D01*
X130216000Y-153514023D01*
X130263619Y-153561642D01*
X131168380Y-154514023D02*
X131168380Y-153942595D01*
X131168380Y-154228309D02*
X130168380Y-154228309D01*
X130311238Y-154133071D01*
X130406476Y-154037833D01*
X130454095Y-153942595D01*
X130168380Y-155133071D02*
X130168380Y-155228309D01*
X130216000Y-155323547D01*
X130263619Y-155371166D01*
X130358857Y-155418785D01*
X130549333Y-155466404D01*
X130787428Y-155466404D01*
X130977904Y-155418785D01*
X131073142Y-155371166D01*
X131120761Y-155323547D01*
X131168380Y-155228309D01*
X131168380Y-155133071D01*
X131120761Y-155037833D01*
X131073142Y-154990214D01*
X130977904Y-154942595D01*
X130787428Y-154894976D01*
X130549333Y-154894976D01*
X130358857Y-154942595D01*
X130263619Y-154990214D01*
X130216000Y-155037833D01*
X130168380Y-155133071D01*
%TO.C,R6*%
X92654380Y-129015833D02*
X92178190Y-128682500D01*
X92654380Y-128444404D02*
X91654380Y-128444404D01*
X91654380Y-128825357D01*
X91702000Y-128920595D01*
X91749619Y-128968214D01*
X91844857Y-129015833D01*
X91987714Y-129015833D01*
X92082952Y-128968214D01*
X92130571Y-128920595D01*
X92178190Y-128825357D01*
X92178190Y-128444404D01*
X91654380Y-129872976D02*
X91654380Y-129682500D01*
X91702000Y-129587261D01*
X91749619Y-129539642D01*
X91892476Y-129444404D01*
X92082952Y-129396785D01*
X92463904Y-129396785D01*
X92559142Y-129444404D01*
X92606761Y-129492023D01*
X92654380Y-129587261D01*
X92654380Y-129777738D01*
X92606761Y-129872976D01*
X92559142Y-129920595D01*
X92463904Y-129968214D01*
X92225809Y-129968214D01*
X92130571Y-129920595D01*
X92082952Y-129872976D01*
X92035333Y-129777738D01*
X92035333Y-129587261D01*
X92082952Y-129492023D01*
X92130571Y-129444404D01*
X92225809Y-129396785D01*
%TO.C,REF\u002A\u002A*%
G36*
X141303111Y-134145571D02*
G01*
X141539770Y-134156915D01*
X141687599Y-134174262D01*
X141763732Y-134200687D01*
X141785302Y-134239265D01*
X141819937Y-134295021D01*
X141948471Y-134318880D01*
X142062993Y-134335694D01*
X142111641Y-134400465D01*
X142121117Y-134438512D01*
X142193225Y-134482049D01*
X142195589Y-134482106D01*
X142224834Y-134498156D01*
X142246050Y-134552426D01*
X142260446Y-134659024D01*
X142269232Y-134832058D01*
X142273617Y-135085637D01*
X142274810Y-135433869D01*
X142274805Y-135461446D01*
X142273429Y-135802638D01*
X142268777Y-136050159D01*
X142259641Y-136218116D01*
X142244809Y-136320618D01*
X142223074Y-136371773D01*
X142193225Y-136385689D01*
X142150614Y-136403092D01*
X142120375Y-136486620D01*
X142111641Y-136657638D01*
X142106420Y-136799676D01*
X142081362Y-136900473D01*
X142030056Y-136929587D01*
X141992009Y-136939063D01*
X141948471Y-137011171D01*
X141938995Y-137049219D01*
X141866887Y-137092756D01*
X141810449Y-137124721D01*
X141785302Y-137249581D01*
X141762570Y-137371368D01*
X141676523Y-137434853D01*
X141613404Y-137467552D01*
X141567743Y-137549976D01*
X141557060Y-137592725D01*
X141486159Y-137636653D01*
X141448111Y-137646129D01*
X141404574Y-137718238D01*
X141395098Y-137756285D01*
X141322990Y-137799822D01*
X141288386Y-137809774D01*
X141252082Y-137883256D01*
X141241405Y-138044576D01*
X141244722Y-138148386D01*
X141269216Y-138257299D01*
X141322990Y-138289330D01*
X141352030Y-138299111D01*
X141378332Y-138349230D01*
X141394383Y-138457263D01*
X141402395Y-138640145D01*
X141404574Y-138914811D01*
X141405850Y-139137456D01*
X141412387Y-139339099D01*
X141426479Y-139462164D01*
X141450333Y-139523583D01*
X141486159Y-139540293D01*
X141510760Y-139546624D01*
X141539270Y-139590566D01*
X141556679Y-139691272D01*
X141565375Y-139866057D01*
X141567743Y-140132237D01*
X141567806Y-140204958D01*
X141570273Y-140443016D01*
X141578900Y-140596969D01*
X141597164Y-140686661D01*
X141628545Y-140731932D01*
X141676523Y-140752626D01*
X141713579Y-140766138D01*
X141751888Y-140805841D01*
X141773532Y-140888382D01*
X141783130Y-141035730D01*
X141785302Y-141269853D01*
X141788365Y-141492213D01*
X141800965Y-141657670D01*
X141826141Y-141750551D01*
X141866887Y-141789941D01*
X141885649Y-141801136D01*
X141916576Y-141855303D01*
X141935826Y-141964871D01*
X141945692Y-142147598D01*
X141948471Y-142421241D01*
X141949437Y-142610431D01*
X141955615Y-142815990D01*
X141969549Y-142941496D01*
X141993582Y-143004171D01*
X142030056Y-143021235D01*
X142048572Y-143023824D01*
X142086732Y-143066249D01*
X142106194Y-143176467D01*
X142111641Y-143374769D01*
X142111772Y-143465158D01*
X142116810Y-143617234D01*
X142137320Y-143695361D01*
X142184230Y-143724172D01*
X142268466Y-143728302D01*
X142390253Y-143705569D01*
X142453738Y-143619522D01*
X142469386Y-143578346D01*
X142520328Y-143535377D01*
X142626119Y-143515549D01*
X142813615Y-143510743D01*
X142965347Y-143512910D01*
X143081656Y-143526302D01*
X143133317Y-143559136D01*
X143145045Y-143619522D01*
X143159371Y-143682983D01*
X143220811Y-143728302D01*
X143259402Y-143737601D01*
X143327883Y-143809886D01*
X143351729Y-143847469D01*
X143442482Y-143891471D01*
X143502258Y-143926274D01*
X143525773Y-144054640D01*
X143542587Y-144169162D01*
X143607358Y-144217809D01*
X143633083Y-144224910D01*
X143661034Y-144270342D01*
X143678100Y-144372820D01*
X143686622Y-144549567D01*
X143688943Y-144817803D01*
X143688399Y-144955991D01*
X143682648Y-145185645D01*
X143668753Y-145332543D01*
X143644422Y-145414444D01*
X143607358Y-145449104D01*
X143604412Y-145450309D01*
X143545245Y-145532627D01*
X143525773Y-145713002D01*
X143520085Y-145837892D01*
X143488275Y-145932683D01*
X143416994Y-145974040D01*
X143352046Y-146008132D01*
X143317200Y-146091432D01*
X143308214Y-146252332D01*
X143304539Y-146363503D01*
X143279909Y-146470756D01*
X143226630Y-146502178D01*
X143169369Y-146535806D01*
X143145045Y-146665347D01*
X143128231Y-146779868D01*
X143063461Y-146828516D01*
X143056030Y-146828860D01*
X142999568Y-146878084D01*
X142981876Y-147018880D01*
X142981729Y-147036218D01*
X142960633Y-147167964D01*
X142900292Y-147209244D01*
X142862244Y-147218720D01*
X142818707Y-147290829D01*
X142809231Y-147328876D01*
X142737122Y-147372413D01*
X142679862Y-147406041D01*
X142655538Y-147535582D01*
X142672352Y-147650104D01*
X142737122Y-147698751D01*
X142748955Y-147699888D01*
X142783790Y-147729599D01*
X142805108Y-147813274D01*
X142815787Y-147969147D01*
X142818707Y-148215454D01*
X142818886Y-148290394D01*
X142823578Y-148511018D01*
X142836789Y-148646030D01*
X142861401Y-148713664D01*
X142900292Y-148732156D01*
X142929332Y-148741938D01*
X142955633Y-148792056D01*
X142971685Y-148900089D01*
X142979697Y-149082971D01*
X142981876Y-149357638D01*
X142983152Y-149580282D01*
X142989689Y-149781926D01*
X143003780Y-149904990D01*
X143027635Y-149966410D01*
X143063461Y-149983120D01*
X143088951Y-149990054D01*
X143117019Y-150035170D01*
X143134156Y-150137274D01*
X143142715Y-150313606D01*
X143145045Y-150581407D01*
X143145991Y-150768333D01*
X143152143Y-150974165D01*
X143166066Y-151099842D01*
X143190112Y-151162604D01*
X143226630Y-151179694D01*
X143245146Y-151182282D01*
X143283306Y-151224708D01*
X143302768Y-151334925D01*
X143308214Y-151533227D01*
X143307617Y-151613461D01*
X143297827Y-151778823D01*
X143272392Y-151863158D01*
X143226630Y-151886760D01*
X143208114Y-151884171D01*
X143169954Y-151841746D01*
X143150492Y-151731529D01*
X143145045Y-151533227D01*
X143144448Y-151452992D01*
X143134657Y-151287631D01*
X143109223Y-151203296D01*
X143063461Y-151179694D01*
X143037971Y-151172760D01*
X143009903Y-151127643D01*
X142992765Y-151025540D01*
X142984207Y-150849208D01*
X142981876Y-150581407D01*
X142980931Y-150394480D01*
X142974778Y-150188648D01*
X142960855Y-150062972D01*
X142936810Y-150000209D01*
X142900292Y-149983120D01*
X142862244Y-149973643D01*
X142818707Y-149901535D01*
X142804855Y-149865399D01*
X142740828Y-149837736D01*
X142606844Y-149823793D01*
X142383589Y-149819951D01*
X142268867Y-149819550D01*
X142095872Y-149814089D01*
X141999395Y-149797852D01*
X141957556Y-149765370D01*
X141948471Y-149711171D01*
X141942249Y-149662063D01*
X141889310Y-149614560D01*
X141758107Y-149602392D01*
X141740770Y-149602244D01*
X141609024Y-149581148D01*
X141567743Y-149520807D01*
X141557791Y-149486204D01*
X141484310Y-149449900D01*
X141322990Y-149439223D01*
X141219180Y-149435905D01*
X141110267Y-149411411D01*
X141078236Y-149357638D01*
X141077892Y-149350208D01*
X141028668Y-149293745D01*
X140887872Y-149276053D01*
X140870534Y-149275906D01*
X140738788Y-149254810D01*
X140697508Y-149194469D01*
X140663880Y-149137208D01*
X140534339Y-149112884D01*
X140419817Y-149096070D01*
X140371170Y-149031300D01*
X140359915Y-148994998D01*
X140284485Y-148959976D01*
X140121324Y-148949715D01*
X139970202Y-148942267D01*
X139881722Y-148909966D01*
X139843032Y-148840936D01*
X139813463Y-148780582D01*
X139733288Y-148742178D01*
X139576175Y-148732156D01*
X139481684Y-148729282D01*
X139370602Y-148704985D01*
X139337765Y-148650572D01*
X139337708Y-148648208D01*
X139321658Y-148618963D01*
X139267388Y-148597747D01*
X139160790Y-148583350D01*
X138987756Y-148574565D01*
X138734177Y-148570180D01*
X138385945Y-148568987D01*
X138358368Y-148568982D01*
X138017176Y-148567606D01*
X137769655Y-148562955D01*
X137601698Y-148553818D01*
X137499196Y-148538986D01*
X137448041Y-148517251D01*
X137434125Y-148487402D01*
X137431204Y-148471104D01*
X137399470Y-148443367D01*
X137320378Y-148424558D01*
X137178580Y-148413088D01*
X136958727Y-148407371D01*
X136645474Y-148405818D01*
X136487925Y-148405516D01*
X136219802Y-148402233D01*
X136037977Y-148394051D01*
X135927104Y-148379382D01*
X135871835Y-148356639D01*
X135856823Y-148324233D01*
X135854234Y-148305718D01*
X135811809Y-148267557D01*
X135701592Y-148248095D01*
X135503289Y-148242649D01*
X135423055Y-148242051D01*
X135257693Y-148232261D01*
X135173358Y-148206826D01*
X135149756Y-148161064D01*
X135140280Y-148123017D01*
X135068172Y-148079480D01*
X135060741Y-148079135D01*
X135004279Y-148029912D01*
X134986587Y-147889116D01*
X134986735Y-147871778D01*
X135007830Y-147740032D01*
X135068172Y-147698751D01*
X135125432Y-147665123D01*
X135149756Y-147535582D01*
X135166570Y-147421061D01*
X135231341Y-147372413D01*
X135269388Y-147362937D01*
X135312925Y-147290829D01*
X135322402Y-147252781D01*
X135394510Y-147209244D01*
X135453254Y-147172729D01*
X135476095Y-147040983D01*
X135476122Y-147034651D01*
X135501693Y-146902831D01*
X135584874Y-146844275D01*
X135648085Y-146813644D01*
X135693653Y-146740588D01*
X135703057Y-146705625D01*
X135775238Y-146665347D01*
X135832499Y-146631719D01*
X135856823Y-146502178D01*
X135873637Y-146387656D01*
X135938407Y-146339008D01*
X135985983Y-146318818D01*
X136019992Y-146230229D01*
X136035134Y-146166794D01*
X136101576Y-146121450D01*
X136111406Y-146120806D01*
X136154684Y-146086337D01*
X136176895Y-145984601D01*
X136183161Y-145795111D01*
X136183000Y-145755791D01*
X136174383Y-145582679D01*
X136148949Y-145493835D01*
X136101576Y-145468773D01*
X136058965Y-145451371D01*
X136028726Y-145367843D01*
X136019992Y-145196824D01*
X136014771Y-145054786D01*
X135989713Y-144953989D01*
X135938407Y-144924876D01*
X135902271Y-144911024D01*
X135874608Y-144846997D01*
X135860665Y-144713013D01*
X135856823Y-144489758D01*
X135854225Y-144297033D01*
X135842220Y-144149494D01*
X135817098Y-144075134D01*
X135775238Y-144054640D01*
X135738936Y-144043386D01*
X135703914Y-143967956D01*
X135693653Y-143804794D01*
X135686205Y-143653673D01*
X135653905Y-143565193D01*
X135584874Y-143526502D01*
X135566033Y-143520833D01*
X135518283Y-143488619D01*
X135491111Y-143418317D01*
X135478915Y-143286386D01*
X135476095Y-143069282D01*
X135473670Y-142884885D01*
X135461791Y-142736187D01*
X135436634Y-142661194D01*
X135394510Y-142640507D01*
X135383474Y-142639023D01*
X135357448Y-142614404D01*
X135338560Y-142548953D01*
X135325736Y-142429085D01*
X135317904Y-142241211D01*
X135313991Y-141971746D01*
X135312925Y-141607103D01*
X135312808Y-141467317D01*
X135310865Y-141137655D01*
X135305697Y-140898400D01*
X135296234Y-140735963D01*
X135281402Y-140636758D01*
X135260128Y-140587198D01*
X135231341Y-140573698D01*
X135193293Y-140564222D01*
X135149756Y-140492113D01*
X135116128Y-140434853D01*
X134986587Y-140410529D01*
X134872405Y-140393218D01*
X134823418Y-140335288D01*
X134803031Y-140286235D01*
X134714638Y-140231600D01*
X134651520Y-140198902D01*
X134605859Y-140116477D01*
X134595175Y-140073728D01*
X134524274Y-140029801D01*
X134486227Y-140020324D01*
X134442690Y-139948216D01*
X134409062Y-139890955D01*
X134279521Y-139866632D01*
X134164999Y-139849817D01*
X134116352Y-139785047D01*
X134106875Y-139747000D01*
X134034767Y-139703462D01*
X133977945Y-139670740D01*
X133953182Y-139543739D01*
X133946588Y-139455077D01*
X133899042Y-139391664D01*
X133776416Y-139366973D01*
X133703360Y-139357925D01*
X133630948Y-139326631D01*
X133598045Y-139248095D01*
X133583072Y-139091578D01*
X133582200Y-139077981D01*
X134116352Y-139077981D01*
X134125828Y-139116028D01*
X134197936Y-139159565D01*
X134205366Y-139159909D01*
X134261829Y-139209133D01*
X134279521Y-139349929D01*
X134279668Y-139367267D01*
X134300764Y-139499013D01*
X134361105Y-139540293D01*
X134399153Y-139549770D01*
X134442690Y-139621878D01*
X134443034Y-139629308D01*
X134492257Y-139685771D01*
X134633054Y-139703462D01*
X134650391Y-139703610D01*
X134782138Y-139724706D01*
X134823418Y-139785047D01*
X134832894Y-139823094D01*
X134905002Y-139866632D01*
X134943050Y-139876108D01*
X134986587Y-139948216D01*
X135020215Y-140005477D01*
X135149756Y-140029801D01*
X135191876Y-140030923D01*
X135287284Y-140058957D01*
X135312925Y-140138580D01*
X135328068Y-140202015D01*
X135394510Y-140247360D01*
X135432557Y-140256836D01*
X135476095Y-140328944D01*
X135496285Y-140376520D01*
X135584874Y-140410529D01*
X135596547Y-140410743D01*
X135631391Y-140418919D01*
X135656722Y-140449607D01*
X135674053Y-140517183D01*
X135684898Y-140636026D01*
X135690771Y-140820513D01*
X135693185Y-141085023D01*
X135693653Y-141443934D01*
X135693771Y-141583719D01*
X135695714Y-141913381D01*
X135700881Y-142152637D01*
X135710345Y-142315074D01*
X135725177Y-142414278D01*
X135746450Y-142463838D01*
X135775238Y-142477338D01*
X135811374Y-142491190D01*
X135839038Y-142555217D01*
X135852980Y-142689201D01*
X135856823Y-142912456D01*
X135859420Y-143105181D01*
X135871425Y-143252720D01*
X135896547Y-143327080D01*
X135938407Y-143347574D01*
X135974543Y-143361425D01*
X136002207Y-143425453D01*
X136016149Y-143559436D01*
X136019992Y-143782692D01*
X136022589Y-143975416D01*
X136034594Y-144122956D01*
X136059716Y-144197315D01*
X136101576Y-144217809D01*
X136144188Y-144235211D01*
X136174427Y-144318740D01*
X136183161Y-144489758D01*
X136188382Y-144631796D01*
X136213440Y-144732593D01*
X136264746Y-144761707D01*
X136297032Y-144771846D01*
X136327002Y-144830266D01*
X136342143Y-144958022D01*
X136346330Y-145174721D01*
X136346413Y-145223232D01*
X136350923Y-145417584D01*
X136366599Y-145531854D01*
X136399355Y-145590051D01*
X136455110Y-145616183D01*
X136515463Y-145645751D01*
X136553867Y-145725926D01*
X136563889Y-145883039D01*
X136559840Y-145994954D01*
X136533992Y-146093537D01*
X136477212Y-146121450D01*
X136421605Y-146141771D01*
X136362089Y-146230229D01*
X136331458Y-146293440D01*
X136258402Y-146339008D01*
X136205750Y-146376550D01*
X136183161Y-146502178D01*
X136166347Y-146616699D01*
X136101576Y-146665347D01*
X136044316Y-146698975D01*
X136019992Y-146828516D01*
X136003178Y-146943037D01*
X135938407Y-146991685D01*
X135899600Y-147001777D01*
X135856823Y-147074977D01*
X135847592Y-147116887D01*
X135775238Y-147189575D01*
X135719786Y-147250792D01*
X135693653Y-147378232D01*
X135692953Y-147410347D01*
X135665626Y-147508780D01*
X135584874Y-147535582D01*
X135521439Y-147550725D01*
X135476095Y-147617167D01*
X135466618Y-147655214D01*
X135394510Y-147698751D01*
X135356463Y-147708228D01*
X135312925Y-147780336D01*
X135315514Y-147798852D01*
X135357939Y-147837012D01*
X135468156Y-147856474D01*
X135666459Y-147861921D01*
X135848715Y-147864840D01*
X135959893Y-147879009D01*
X136008973Y-147911830D01*
X136019992Y-147970700D01*
X136020279Y-147984216D01*
X136030349Y-148022768D01*
X136067041Y-148049228D01*
X136146785Y-148065862D01*
X136286013Y-148074938D01*
X136501155Y-148078722D01*
X136808643Y-148079480D01*
X136966191Y-148079782D01*
X137234315Y-148083064D01*
X137416139Y-148091246D01*
X137527012Y-148105915D01*
X137582281Y-148128659D01*
X137597294Y-148161064D01*
X137598778Y-148172100D01*
X137623397Y-148198126D01*
X137688848Y-148217014D01*
X137808716Y-148229838D01*
X137996590Y-148237670D01*
X138266055Y-148241583D01*
X138630698Y-148242649D01*
X138770484Y-148242766D01*
X139100146Y-148244710D01*
X139339402Y-148249877D01*
X139501839Y-148259340D01*
X139601043Y-148274172D01*
X139650603Y-148295446D01*
X139664103Y-148324233D01*
X139664447Y-148331664D01*
X139713671Y-148388126D01*
X139854467Y-148405818D01*
X139871805Y-148405965D01*
X140003551Y-148427061D01*
X140044831Y-148487402D01*
X140078459Y-148544663D01*
X140208000Y-148568987D01*
X140322522Y-148585801D01*
X140371170Y-148650572D01*
X140403134Y-148707010D01*
X140527995Y-148732156D01*
X140649782Y-148754889D01*
X140713267Y-148840936D01*
X140714378Y-148845025D01*
X140775088Y-148925922D01*
X140909975Y-148949715D01*
X141031129Y-148967420D01*
X141078236Y-149031300D01*
X141088188Y-149065903D01*
X141161669Y-149102207D01*
X141322990Y-149112884D01*
X141426799Y-149116202D01*
X141535712Y-149140695D01*
X141567743Y-149194469D01*
X141585146Y-149237080D01*
X141668674Y-149267319D01*
X141839692Y-149276053D01*
X141981730Y-149281274D01*
X142082527Y-149306332D01*
X142111641Y-149357638D01*
X142114229Y-149376154D01*
X142156655Y-149414314D01*
X142266872Y-149433776D01*
X142465174Y-149439223D01*
X142818707Y-149439223D01*
X142818707Y-149194469D01*
X142815390Y-149090659D01*
X142790896Y-148981746D01*
X142737122Y-148949715D01*
X142708082Y-148939933D01*
X142681781Y-148889815D01*
X142665729Y-148781782D01*
X142657717Y-148598900D01*
X142655538Y-148324233D01*
X142654092Y-148086426D01*
X142647350Y-147891075D01*
X142632985Y-147772787D01*
X142608712Y-147714400D01*
X142572246Y-147698751D01*
X142530336Y-147707983D01*
X142457648Y-147780336D01*
X142434540Y-147818048D01*
X142350575Y-147861921D01*
X142326834Y-147856060D01*
X142287151Y-147783290D01*
X142274810Y-147617167D01*
X142278127Y-147513357D01*
X142302621Y-147404444D01*
X142356394Y-147372413D01*
X142415138Y-147335898D01*
X142437979Y-147204152D01*
X142438006Y-147197820D01*
X142463577Y-147066000D01*
X142546758Y-147007444D01*
X142609969Y-146976813D01*
X142655538Y-146903757D01*
X142664942Y-146868794D01*
X142737122Y-146828516D01*
X142794383Y-146794888D01*
X142818707Y-146665347D01*
X142835521Y-146550825D01*
X142900292Y-146502178D01*
X142942903Y-146484775D01*
X142973142Y-146401247D01*
X142981876Y-146230229D01*
X142987097Y-146088191D01*
X143012155Y-145987394D01*
X143063461Y-145958280D01*
X143073895Y-145957549D01*
X143116818Y-145922565D01*
X143138837Y-145820286D01*
X143145045Y-145630235D01*
X143151331Y-145450381D01*
X143177021Y-145324650D01*
X143226630Y-145270883D01*
X143226921Y-145270770D01*
X143266736Y-145232250D01*
X143291668Y-145141614D01*
X143304550Y-144980036D01*
X143308214Y-144728693D01*
X143308071Y-144662077D01*
X143303506Y-144440244D01*
X143290360Y-144304462D01*
X143265710Y-144236421D01*
X143226630Y-144217809D01*
X143188582Y-144208333D01*
X143145045Y-144136225D01*
X143135569Y-144098177D01*
X143063461Y-144054640D01*
X143025413Y-144045164D01*
X142981876Y-143973056D01*
X142964474Y-143930444D01*
X142880946Y-143900205D01*
X142709928Y-143891471D01*
X142567889Y-143896692D01*
X142467092Y-143921750D01*
X142437979Y-143973056D01*
X142404351Y-144030316D01*
X142274810Y-144054640D01*
X142160288Y-144071454D01*
X142111641Y-144136225D01*
X142078012Y-144193485D01*
X141948471Y-144217809D01*
X141833950Y-144234623D01*
X141785302Y-144299394D01*
X141748787Y-144358138D01*
X141617041Y-144380978D01*
X141610709Y-144381005D01*
X141478890Y-144406577D01*
X141420334Y-144489758D01*
X141366548Y-144570110D01*
X141235062Y-144598537D01*
X141203859Y-144597871D01*
X141105147Y-144570614D01*
X141078236Y-144489758D01*
X141093378Y-144426323D01*
X141159820Y-144380978D01*
X141197868Y-144371502D01*
X141241405Y-144299394D01*
X141250881Y-144261346D01*
X141322990Y-144217809D01*
X141361037Y-144208333D01*
X141404574Y-144136225D01*
X141404918Y-144128794D01*
X141454142Y-144072332D01*
X141594938Y-144054640D01*
X141612276Y-144054493D01*
X141744022Y-144033397D01*
X141785302Y-143973056D01*
X141794779Y-143935008D01*
X141866887Y-143891471D01*
X141903023Y-143877619D01*
X141930686Y-143813592D01*
X141944629Y-143679608D01*
X141948471Y-143456353D01*
X141945874Y-143263628D01*
X141933869Y-143116089D01*
X141908747Y-143041730D01*
X141866887Y-143021235D01*
X141856358Y-143020356D01*
X141820879Y-142991874D01*
X141799162Y-142909678D01*
X141788279Y-142755451D01*
X141785302Y-142510877D01*
X141784142Y-142312726D01*
X141777048Y-142143642D01*
X141759636Y-142044818D01*
X141727573Y-141994785D01*
X141676523Y-141972071D01*
X141660189Y-141967266D01*
X141617891Y-141941543D01*
X141590879Y-141885622D01*
X141575771Y-141779859D01*
X141569187Y-141604615D01*
X141567743Y-141340246D01*
X141566738Y-141146579D01*
X141560511Y-140941556D01*
X141546554Y-140816385D01*
X141522544Y-140753883D01*
X141486159Y-140736867D01*
X141460669Y-140729933D01*
X141432601Y-140684817D01*
X141415463Y-140582713D01*
X141406905Y-140406381D01*
X141404574Y-140138580D01*
X141403629Y-139951654D01*
X141397476Y-139745822D01*
X141383553Y-139620145D01*
X141359508Y-139557383D01*
X141322990Y-139540293D01*
X141293949Y-139530511D01*
X141267648Y-139480393D01*
X141251596Y-139372360D01*
X141243585Y-139189478D01*
X141241405Y-138914811D01*
X141240129Y-138692167D01*
X141233592Y-138490524D01*
X141219501Y-138367459D01*
X141195647Y-138306040D01*
X141159820Y-138289330D01*
X141123685Y-138275478D01*
X141096021Y-138211451D01*
X141082079Y-138077467D01*
X141078236Y-137854212D01*
X141080833Y-137661487D01*
X141092838Y-137513948D01*
X141117960Y-137439588D01*
X141159820Y-137419094D01*
X141197868Y-137409618D01*
X141241405Y-137337510D01*
X141250881Y-137299462D01*
X141322990Y-137255925D01*
X141361037Y-137246449D01*
X141404574Y-137174340D01*
X141414051Y-137136293D01*
X141486159Y-137092756D01*
X141542597Y-137060791D01*
X141567743Y-136935930D01*
X141590476Y-136814143D01*
X141676523Y-136750658D01*
X141741471Y-136716566D01*
X141776317Y-136633266D01*
X141785302Y-136472366D01*
X141788977Y-136361195D01*
X141813608Y-136253942D01*
X141866887Y-136222520D01*
X141883185Y-136219600D01*
X141910922Y-136187866D01*
X141929731Y-136108774D01*
X141941201Y-135966975D01*
X141946918Y-135747123D01*
X141948471Y-135433869D01*
X141948471Y-134645218D01*
X141758107Y-134645218D01*
X141740770Y-134645071D01*
X141609024Y-134623975D01*
X141567743Y-134563634D01*
X141567100Y-134553804D01*
X141532631Y-134510526D01*
X141430895Y-134488315D01*
X141241405Y-134482049D01*
X141202085Y-134482210D01*
X141028973Y-134490827D01*
X140940129Y-134516261D01*
X140915067Y-134563634D01*
X140914723Y-134571064D01*
X140865499Y-134627527D01*
X140724703Y-134645218D01*
X140707365Y-134645366D01*
X140575619Y-134666462D01*
X140534339Y-134726803D01*
X140525940Y-134759138D01*
X140454938Y-134797150D01*
X140295928Y-134808387D01*
X140162007Y-134814677D01*
X140069471Y-134846677D01*
X140029072Y-134917167D01*
X139996374Y-134980286D01*
X139913949Y-135025946D01*
X139871200Y-135036630D01*
X139827272Y-135107531D01*
X139793644Y-135164792D01*
X139664103Y-135189116D01*
X139549582Y-135205930D01*
X139500934Y-135270700D01*
X139491458Y-135308748D01*
X139419349Y-135352285D01*
X139381302Y-135361761D01*
X139337765Y-135433869D01*
X139328288Y-135471917D01*
X139256180Y-135515454D01*
X139218133Y-135524930D01*
X139174596Y-135597038D01*
X139163245Y-135637276D01*
X139087919Y-135678623D01*
X139032311Y-135698944D01*
X138972796Y-135787402D01*
X138919011Y-135867755D01*
X138787524Y-135896182D01*
X138679036Y-135912811D01*
X138630698Y-135977766D01*
X138621222Y-136015814D01*
X138549114Y-136059351D01*
X138511066Y-136068827D01*
X138467529Y-136140936D01*
X138458053Y-136178983D01*
X138385945Y-136222520D01*
X138347897Y-136231997D01*
X138304360Y-136304105D01*
X138294268Y-136342912D01*
X138221068Y-136385689D01*
X138179158Y-136394920D01*
X138106470Y-136467274D01*
X138045254Y-136522726D01*
X137917813Y-136548859D01*
X137885699Y-136549559D01*
X137787265Y-136576886D01*
X137760463Y-136657638D01*
X137745320Y-136721073D01*
X137678878Y-136766417D01*
X137640831Y-136775894D01*
X137597294Y-136848002D01*
X137587817Y-136886049D01*
X137515709Y-136929587D01*
X137477662Y-136939063D01*
X137434125Y-137011171D01*
X137413935Y-137058747D01*
X137325345Y-137092756D01*
X137261910Y-137107898D01*
X137216566Y-137174340D01*
X137207089Y-137212388D01*
X137134981Y-137255925D01*
X137096934Y-137265401D01*
X137053396Y-137337510D01*
X137043920Y-137375557D01*
X136971812Y-137419094D01*
X136924236Y-137439284D01*
X136890227Y-137527874D01*
X136875085Y-137591309D01*
X136808643Y-137636653D01*
X136770595Y-137646129D01*
X136727058Y-137718238D01*
X136717582Y-137756285D01*
X136645474Y-137799822D01*
X136607426Y-137809299D01*
X136563889Y-137881407D01*
X136543699Y-137928983D01*
X136455110Y-137962991D01*
X136391675Y-137978134D01*
X136346330Y-138044576D01*
X136336854Y-138082623D01*
X136264746Y-138126160D01*
X136226698Y-138135637D01*
X136183161Y-138207745D01*
X136173685Y-138245792D01*
X136101576Y-138289330D01*
X136054000Y-138309520D01*
X136019992Y-138398109D01*
X136018978Y-138420310D01*
X135979450Y-138488360D01*
X135862642Y-138506889D01*
X135747747Y-138527596D01*
X135673985Y-138588473D01*
X135611195Y-138644542D01*
X135477802Y-138670058D01*
X135361049Y-138687173D01*
X135312925Y-138751642D01*
X135279297Y-138808903D01*
X135149756Y-138833227D01*
X135035235Y-138850041D01*
X134986587Y-138914811D01*
X134972735Y-138950947D01*
X134908708Y-138978611D01*
X134774725Y-138992553D01*
X134551469Y-138996396D01*
X134358745Y-138998993D01*
X134211205Y-139010998D01*
X134136846Y-139036120D01*
X134116352Y-139077981D01*
X133582200Y-139077981D01*
X133566494Y-138833227D01*
X133759838Y-138833227D01*
X133782339Y-138832986D01*
X133912579Y-138811550D01*
X133953182Y-138751642D01*
X133962792Y-138719996D01*
X134020340Y-138689643D01*
X134147130Y-138674302D01*
X134362812Y-138670058D01*
X134468756Y-138669158D01*
X134654040Y-138658475D01*
X134759096Y-138632803D01*
X134803749Y-138588473D01*
X134804954Y-138585528D01*
X134887272Y-138526360D01*
X135067647Y-138506889D01*
X135192537Y-138501200D01*
X135287328Y-138469390D01*
X135328685Y-138398109D01*
X135329796Y-138394020D01*
X135390505Y-138313123D01*
X135525392Y-138289330D01*
X135646547Y-138271625D01*
X135693653Y-138207745D01*
X135703130Y-138169698D01*
X135775238Y-138126160D01*
X135813285Y-138116684D01*
X135856823Y-138044576D01*
X135866299Y-138006528D01*
X135938407Y-137962991D01*
X135976455Y-137953515D01*
X136019992Y-137881407D01*
X136029468Y-137843359D01*
X136101576Y-137799822D01*
X136139624Y-137790346D01*
X136183161Y-137718238D01*
X136192637Y-137680190D01*
X136264746Y-137636653D01*
X136304983Y-137625303D01*
X136346330Y-137549976D01*
X136366651Y-137494369D01*
X136455110Y-137434853D01*
X136518320Y-137404222D01*
X136563889Y-137331166D01*
X136573293Y-137296203D01*
X136645474Y-137255925D01*
X136683521Y-137246449D01*
X136727058Y-137174340D01*
X136736535Y-137136293D01*
X136808643Y-137092756D01*
X136846690Y-137083279D01*
X136890227Y-137011171D01*
X136899704Y-136973124D01*
X136971812Y-136929587D01*
X137009859Y-136920110D01*
X137053396Y-136848002D01*
X137062069Y-136810092D01*
X137128638Y-136766417D01*
X137177691Y-136746030D01*
X137232325Y-136657638D01*
X137265023Y-136594519D01*
X137347448Y-136548859D01*
X137390197Y-136538175D01*
X137434125Y-136467274D01*
X137443601Y-136429227D01*
X137515709Y-136385689D01*
X137553757Y-136376213D01*
X137597294Y-136304105D01*
X137606770Y-136266057D01*
X137678878Y-136222520D01*
X137716926Y-136213044D01*
X137760463Y-136140936D01*
X137794091Y-136083675D01*
X137923632Y-136059351D01*
X138038154Y-136042537D01*
X138086801Y-135977766D01*
X138098152Y-135937529D01*
X138173478Y-135896182D01*
X138229085Y-135875861D01*
X138288601Y-135787402D01*
X138319232Y-135724192D01*
X138392288Y-135678623D01*
X138427251Y-135669219D01*
X138467529Y-135597038D01*
X138501157Y-135539778D01*
X138630698Y-135515454D01*
X138745220Y-135498640D01*
X138793868Y-135433869D01*
X138803344Y-135395822D01*
X138875452Y-135352285D01*
X138913500Y-135342808D01*
X138957037Y-135270700D01*
X138957381Y-135263270D01*
X139006604Y-135206807D01*
X139147401Y-135189116D01*
X139164738Y-135188968D01*
X139296485Y-135167872D01*
X139337765Y-135107531D01*
X139347241Y-135069484D01*
X139419349Y-135025946D01*
X139466926Y-135005756D01*
X139500934Y-134917167D01*
X139516076Y-134853732D01*
X139582519Y-134808387D01*
X139620566Y-134798911D01*
X139664103Y-134726803D01*
X139664447Y-134719373D01*
X139713671Y-134662910D01*
X139854467Y-134645218D01*
X139871805Y-134645071D01*
X140003551Y-134623975D01*
X140044831Y-134563634D01*
X140078459Y-134506373D01*
X140208000Y-134482049D01*
X140322522Y-134465235D01*
X140371170Y-134400465D01*
X140380646Y-134362417D01*
X140452754Y-134318880D01*
X140495366Y-134301478D01*
X140525605Y-134217950D01*
X140534339Y-134046931D01*
X140529118Y-133904893D01*
X140504060Y-133804096D01*
X140452754Y-133774983D01*
X140427264Y-133768049D01*
X140399196Y-133722932D01*
X140382058Y-133620829D01*
X140373500Y-133444497D01*
X140371170Y-133176696D01*
X140370224Y-132989769D01*
X140364072Y-132783937D01*
X140350148Y-132658261D01*
X140326103Y-132595498D01*
X140289585Y-132578409D01*
X140271069Y-132575820D01*
X140232909Y-132533395D01*
X140213447Y-132423178D01*
X140208000Y-132224876D01*
X140208598Y-132144641D01*
X140218388Y-131979280D01*
X140243823Y-131894945D01*
X140289585Y-131871343D01*
X140308101Y-131873931D01*
X140346261Y-131916357D01*
X140365723Y-132026574D01*
X140371170Y-132224876D01*
X140371767Y-132305110D01*
X140381557Y-132470472D01*
X140406992Y-132554807D01*
X140452754Y-132578409D01*
X140478244Y-132585343D01*
X140506312Y-132630459D01*
X140523450Y-132732563D01*
X140532008Y-132908895D01*
X140534339Y-133176696D01*
X140534973Y-133328336D01*
X140540649Y-133548661D01*
X140554012Y-133685469D01*
X140577232Y-133755373D01*
X140612477Y-133774983D01*
X140672772Y-133819605D01*
X140707659Y-133951749D01*
X140724703Y-134128516D01*
X141241405Y-134143684D01*
X141255002Y-134144083D01*
X141303111Y-134145571D01*
G37*
G36*
X140097871Y-142858664D02*
G01*
X140263232Y-142868454D01*
X140347567Y-142893889D01*
X140371170Y-142939651D01*
X140380646Y-142977698D01*
X140452754Y-143021235D01*
X140487357Y-143031187D01*
X140523662Y-143104669D01*
X140534339Y-143265989D01*
X140531021Y-143369799D01*
X140506528Y-143478712D01*
X140452754Y-143510743D01*
X140445324Y-143511087D01*
X140388861Y-143560311D01*
X140371170Y-143701107D01*
X140370508Y-143764405D01*
X140353400Y-143852576D01*
X140289443Y-143886142D01*
X140147679Y-143891471D01*
X140013896Y-143874105D01*
X139842626Y-143803669D01*
X139715624Y-143698266D01*
X139665043Y-143578730D01*
X139655332Y-143547339D01*
X139582519Y-143510743D01*
X139547915Y-143500791D01*
X139511611Y-143427310D01*
X139500934Y-143265989D01*
X139504251Y-143162179D01*
X139528745Y-143053266D01*
X139582519Y-143021235D01*
X139620566Y-143011759D01*
X139664103Y-142939651D01*
X139666692Y-142921135D01*
X139709117Y-142882975D01*
X139819334Y-142863513D01*
X140017636Y-142858066D01*
X140097871Y-142858664D01*
G37*
G36*
X139364664Y-138126164D02*
G01*
X139544699Y-138133600D01*
X139637672Y-138158965D01*
X139664103Y-138207745D01*
X139673579Y-138245792D01*
X139745688Y-138289330D01*
X139788299Y-138306732D01*
X139818538Y-138390260D01*
X139827272Y-138561278D01*
X139822052Y-138703316D01*
X139796993Y-138804114D01*
X139745688Y-138833227D01*
X139707640Y-138842703D01*
X139664103Y-138914811D01*
X139654627Y-138952859D01*
X139582519Y-138996396D01*
X139544471Y-139005872D01*
X139500934Y-139077981D01*
X139483532Y-139120592D01*
X139400004Y-139150831D01*
X139228985Y-139159565D01*
X139086947Y-139154345D01*
X138986150Y-139129286D01*
X138957037Y-139077981D01*
X138947560Y-139039933D01*
X138875452Y-138996396D01*
X138870305Y-138996231D01*
X138824345Y-138965790D01*
X138800952Y-138868472D01*
X138794807Y-138683655D01*
X138796332Y-138613462D01*
X138833758Y-138380652D01*
X138931193Y-138230550D01*
X139101871Y-138150078D01*
X139359028Y-138126160D01*
X139364664Y-138126164D01*
G37*
G36*
X140034974Y-139377272D02*
G01*
X140166720Y-139398367D01*
X140208000Y-139458709D01*
X140217477Y-139496756D01*
X140289585Y-139540293D01*
X140325721Y-139554145D01*
X140353384Y-139618172D01*
X140367327Y-139752156D01*
X140371170Y-139975411D01*
X140368572Y-140168136D01*
X140356567Y-140315675D01*
X140331445Y-140390035D01*
X140289585Y-140410529D01*
X140232324Y-140444157D01*
X140208000Y-140573698D01*
X140224814Y-140688219D01*
X140289585Y-140736867D01*
X140327632Y-140746343D01*
X140371170Y-140818452D01*
X140380646Y-140856499D01*
X140452754Y-140900036D01*
X140460184Y-140900380D01*
X140516647Y-140949604D01*
X140534339Y-141090400D01*
X140534486Y-141107738D01*
X140555582Y-141239484D01*
X140615923Y-141280764D01*
X140634439Y-141283353D01*
X140672599Y-141325778D01*
X140692061Y-141435995D01*
X140697508Y-141634298D01*
X140696910Y-141714532D01*
X140687120Y-141879894D01*
X140661685Y-141964229D01*
X140615923Y-141987831D01*
X140577876Y-141997307D01*
X140534339Y-142069415D01*
X140500710Y-142126676D01*
X140371170Y-142151000D01*
X140256648Y-142134186D01*
X140208000Y-142069415D01*
X140217477Y-142031368D01*
X140289585Y-141987831D01*
X140337161Y-141967641D01*
X140371170Y-141879051D01*
X140386312Y-141815616D01*
X140452754Y-141770272D01*
X140510015Y-141736644D01*
X140534339Y-141607103D01*
X140517525Y-141492581D01*
X140452754Y-141443934D01*
X140395493Y-141410305D01*
X140371170Y-141280764D01*
X140354355Y-141166243D01*
X140289585Y-141117595D01*
X140242009Y-141097405D01*
X140208000Y-141008816D01*
X140201778Y-140959708D01*
X140148839Y-140912205D01*
X140017636Y-140900036D01*
X139891711Y-140891459D01*
X139837884Y-140846494D01*
X139827272Y-140736867D01*
X139828395Y-140694747D01*
X139856429Y-140599340D01*
X139936052Y-140573698D01*
X139958253Y-140572684D01*
X140026302Y-140533156D01*
X140044831Y-140416348D01*
X140065538Y-140301454D01*
X140126416Y-140227691D01*
X140139058Y-140221391D01*
X140191211Y-140132978D01*
X140208000Y-139949923D01*
X140204563Y-139843634D01*
X140180022Y-139735286D01*
X140126416Y-139703462D01*
X140088368Y-139693986D01*
X140044831Y-139621878D01*
X140024641Y-139574302D01*
X139936052Y-139540293D01*
X139872617Y-139525151D01*
X139827272Y-139458709D01*
X139827616Y-139451278D01*
X139876840Y-139394816D01*
X140017636Y-139377124D01*
X140034974Y-139377272D01*
G37*
D11*
%TO.C,R20*%
X117616500Y-153772776D02*
X117616500Y-154282224D01*
X116571500Y-153772776D02*
X116571500Y-154282224D01*
%TO.C,R2*%
X129652500Y-132588724D02*
X129652500Y-132079276D01*
X130697500Y-132588724D02*
X130697500Y-132079276D01*
%TO.C,U2*%
X98552000Y-130830000D02*
X95102000Y-130830000D01*
X98552000Y-130830000D02*
X100502000Y-130830000D01*
X98552000Y-125710000D02*
X100502000Y-125710000D01*
X98552000Y-125710000D02*
X96602000Y-125710000D01*
%TO.C,Q3*%
X120178000Y-147066000D02*
X120178000Y-146266000D01*
X117058000Y-147066000D02*
X117058000Y-145266000D01*
X117058000Y-147066000D02*
X117058000Y-147866000D01*
X120178000Y-147066000D02*
X120178000Y-147866000D01*
%TO.C,C7*%
X132087233Y-142496000D02*
X132379767Y-142496000D01*
X132087233Y-141476000D02*
X132379767Y-141476000D01*
%TO.C,Q4*%
X126456000Y-128270000D02*
X126456000Y-126470000D01*
X129576000Y-128270000D02*
X129576000Y-127470000D01*
X129576000Y-128270000D02*
X129576000Y-129070000D01*
X126456000Y-128270000D02*
X126456000Y-129070000D01*
%TO.C,R3*%
X114793500Y-145287276D02*
X114793500Y-145796724D01*
X115838500Y-145287276D02*
X115838500Y-145796724D01*
%TO.C,U4*%
X110990000Y-137595000D02*
X110690000Y-137595000D01*
X117610000Y-130375000D02*
X117910000Y-130375000D01*
X117910000Y-137595000D02*
X117910000Y-137295000D01*
X117610000Y-137595000D02*
X117910000Y-137595000D01*
X117910000Y-130375000D02*
X117910000Y-130675000D01*
X110690000Y-137595000D02*
X110690000Y-137295000D01*
X110990000Y-130375000D02*
X110690000Y-130375000D01*
X117910000Y-130675000D02*
X119225000Y-130675000D01*
X110690000Y-130375000D02*
X110690000Y-130675000D01*
%TO.C,R19*%
X124445500Y-152907276D02*
X124445500Y-153416724D01*
X125490500Y-152907276D02*
X125490500Y-153416724D01*
%TO.C,R11*%
X99328500Y-137311224D02*
X99328500Y-136801776D01*
X98283500Y-137311224D02*
X98283500Y-136801776D01*
%TO.C,R12*%
X122032500Y-129794724D02*
X122032500Y-129285276D01*
X123077500Y-129794724D02*
X123077500Y-129285276D01*
%TO.C,R18*%
X114568500Y-153264776D02*
X114568500Y-153774224D01*
X113523500Y-153264776D02*
X113523500Y-153774224D01*
%TO.C,R16*%
X103617500Y-143256724D02*
X103617500Y-142747276D01*
X104662500Y-143256724D02*
X104662500Y-142747276D01*
%TO.C,R4*%
X125744500Y-129794724D02*
X125744500Y-129285276D01*
X124699500Y-129794724D02*
X124699500Y-129285276D01*
%TO.C,C9*%
X128776000Y-158007267D02*
X128776000Y-157714733D01*
X129796000Y-158007267D02*
X129796000Y-157714733D01*
%TO.C,D2*%
X99164000Y-144408000D02*
X93354000Y-144408000D01*
X99164000Y-148708000D02*
X93354000Y-148708000D01*
X99164000Y-144408000D02*
X99164000Y-148708000D01*
%TO.C,C5*%
X132314733Y-136654000D02*
X132607267Y-136654000D01*
X132314733Y-135634000D02*
X132607267Y-135634000D01*
%TO.C,R17*%
X121651500Y-152907276D02*
X121651500Y-153416724D01*
X122696500Y-152907276D02*
X122696500Y-153416724D01*
%TO.C,Q1*%
X134584000Y-128270000D02*
X134584000Y-126470000D01*
X134584000Y-128270000D02*
X134584000Y-129070000D01*
X137704000Y-128270000D02*
X137704000Y-127470000D01*
X137704000Y-128270000D02*
X137704000Y-129070000D01*
%TO.C,D3*%
X132094000Y-158614000D02*
X137904000Y-158614000D01*
X132094000Y-158614000D02*
X132094000Y-154314000D01*
X132094000Y-154314000D02*
X137904000Y-154314000D01*
%TO.C,C4*%
X105872233Y-128907000D02*
X106164767Y-128907000D01*
X105872233Y-127887000D02*
X106164767Y-127887000D01*
%TO.C,R1*%
X133589500Y-132588724D02*
X133589500Y-132079276D01*
X134634500Y-132588724D02*
X134634500Y-132079276D01*
%TO.C,R27*%
X100344500Y-151383276D02*
X100344500Y-151892724D01*
X99299500Y-151383276D02*
X99299500Y-151892724D01*
%TO.C,R5*%
X91327500Y-129437224D02*
X91327500Y-128927776D01*
X90282500Y-129437224D02*
X90282500Y-128927776D01*
%TO.C,C1*%
X99312000Y-140469233D02*
X99312000Y-140761767D01*
X100332000Y-140469233D02*
X100332000Y-140761767D01*
%TO.C,U5*%
X120722000Y-163176000D02*
X116962000Y-163176000D01*
X116962000Y-163176000D02*
X116962000Y-161916000D01*
X122972000Y-156356000D02*
X116962000Y-156356000D01*
X116962000Y-156356000D02*
X116962000Y-157616000D01*
%TO.C,C6*%
X126700233Y-141476000D02*
X126992767Y-141476000D01*
X126700233Y-142496000D02*
X126992767Y-142496000D01*
%TO.C,J5*%
X104394000Y-137736000D02*
X104394000Y-137336000D01*
X103394000Y-131936000D02*
X103394000Y-131536000D01*
X103394000Y-137336000D02*
X102194000Y-137336000D01*
X106594000Y-137336000D02*
X106594000Y-135136000D01*
X106994000Y-131536000D02*
X106994000Y-137736000D01*
X106594000Y-135136000D02*
X106994000Y-135136000D01*
X102194000Y-131936000D02*
X103394000Y-131936000D01*
X106594000Y-131936000D02*
X106594000Y-134136000D01*
X105394000Y-138046000D02*
X107304000Y-138046000D01*
X102194000Y-137336000D02*
X102194000Y-131936000D01*
X101794000Y-137736000D02*
X101794000Y-131536000D01*
X106994000Y-137736000D02*
X101794000Y-137736000D01*
X104394000Y-131936000D02*
X106594000Y-131936000D01*
X104394000Y-137336000D02*
X106594000Y-137336000D01*
X107304000Y-138046000D02*
X107304000Y-136136000D01*
X103394000Y-137736000D02*
X103394000Y-137336000D01*
X106594000Y-134136000D02*
X106994000Y-134136000D01*
X101794000Y-131536000D02*
X106994000Y-131536000D01*
X104394000Y-131536000D02*
X104394000Y-131936000D01*
%TO.C,C2*%
X92156233Y-126748000D02*
X92448767Y-126748000D01*
X92156233Y-125728000D02*
X92448767Y-125728000D01*
%TO.C,R9*%
X100852500Y-136906724D02*
X100852500Y-136397276D01*
X99807500Y-136906724D02*
X99807500Y-136397276D01*
%TO.C,J1*%
X91694000Y-141830000D02*
X93494000Y-141830000D01*
X91694000Y-132490000D02*
X93494000Y-132490000D01*
X89594000Y-141830000D02*
X88444000Y-141830000D01*
X89594000Y-132490000D02*
X88444000Y-132490000D01*
%TO.C,Q2*%
X130520000Y-128270000D02*
X130520000Y-129070000D01*
X130520000Y-128270000D02*
X130520000Y-126470000D01*
X133640000Y-128270000D02*
X133640000Y-129070000D01*
X133640000Y-128270000D02*
X133640000Y-127470000D01*
%TO.C,C10*%
X129796000Y-154350767D02*
X129796000Y-154058233D01*
X128776000Y-154350767D02*
X128776000Y-154058233D01*
%TO.C,R6*%
X92949500Y-129437224D02*
X92949500Y-128927776D01*
X93994500Y-129437224D02*
X93994500Y-128927776D01*
%TD*%
M02*
