%TF.GenerationSoftware,KiCad,Pcbnew,(6.0.0)*%
%TF.CreationDate,2023-05-26T23:18:24+03:00*%
%TF.ProjectId,uni_mcu_pcb,756e695f-6d63-4755-9f70-63622e6b6963,rev?*%
%TF.SameCoordinates,Original*%
%TF.FileFunction,Paste,Top*%
%TF.FilePolarity,Positive*%
%FSLAX46Y46*%
G04 Gerber Fmt 4.6, Leading zero omitted, Abs format (unit mm)*
G04 Created by KiCad (PCBNEW (6.0.0)) date 2023-05-26 23:18:24*
%MOMM*%
%LPD*%
G01*
G04 APERTURE LIST*
G04 Aperture macros list*
%AMRoundRect*
0 Rectangle with rounded corners*
0 $1 Rounding radius*
0 $2 $3 $4 $5 $6 $7 $8 $9 X,Y pos of 4 corners*
0 Add a 4 corners polygon primitive as box body*
4,1,4,$2,$3,$4,$5,$6,$7,$8,$9,$2,$3,0*
0 Add four circle primitives for the rounded corners*
1,1,$1+$1,$2,$3*
1,1,$1+$1,$4,$5*
1,1,$1+$1,$6,$7*
1,1,$1+$1,$8,$9*
0 Add four rect primitives between the rounded corners*
20,1,$1+$1,$2,$3,$4,$5,0*
20,1,$1+$1,$4,$5,$6,$7,0*
20,1,$1+$1,$6,$7,$8,$9,0*
20,1,$1+$1,$8,$9,$2,$3,0*%
G04 Aperture macros list end*
%ADD10RoundRect,0.237500X0.237500X-0.250000X0.237500X0.250000X-0.237500X0.250000X-0.237500X-0.250000X0*%
%ADD11RoundRect,0.237500X-0.250000X-0.237500X0.250000X-0.237500X0.250000X0.237500X-0.250000X0.237500X0*%
%ADD12R,1.500000X1.500000*%
%ADD13RoundRect,0.250000X1.000000X0.900000X-1.000000X0.900000X-1.000000X-0.900000X1.000000X-0.900000X0*%
%ADD14RoundRect,0.237500X0.250000X0.237500X-0.250000X0.237500X-0.250000X-0.237500X0.250000X-0.237500X0*%
%ADD15R,1.000000X1.500000*%
%ADD16RoundRect,0.150000X-0.150000X0.825000X-0.150000X-0.825000X0.150000X-0.825000X0.150000X0.825000X0*%
%ADD17RoundRect,0.237500X-0.237500X0.250000X-0.237500X-0.250000X0.237500X-0.250000X0.237500X0.250000X0*%
%ADD18RoundRect,0.237500X0.237500X-0.300000X0.237500X0.300000X-0.237500X0.300000X-0.237500X-0.300000X0*%
G04 APERTURE END LIST*
D10*
%TO.C,R8*%
X109982000Y-152146000D03*
X109982000Y-150321000D03*
%TD*%
D11*
%TO.C,R30*%
X101449500Y-163830000D03*
X103274500Y-163830000D03*
%TD*%
D10*
%TO.C,R10*%
X104140000Y-152146000D03*
X104140000Y-150321000D03*
%TD*%
D12*
%TO.C,SW2*%
X142584000Y-153162000D03*
X134784000Y-153162000D03*
%TD*%
D10*
%TO.C,R7*%
X107188000Y-152146000D03*
X107188000Y-150321000D03*
%TD*%
%TO.C,R21*%
X120904000Y-153566500D03*
X120904000Y-151741500D03*
%TD*%
D13*
%TO.C,D4*%
X141596000Y-158496000D03*
X137296000Y-158496000D03*
%TD*%
D14*
%TO.C,R28*%
X103020500Y-154940000D03*
X101195500Y-154940000D03*
%TD*%
D15*
%TO.C,D1*%
X105726000Y-158063500D03*
X107126000Y-158063500D03*
X107126000Y-154563500D03*
X105726000Y-154563500D03*
%TD*%
D11*
%TO.C,R29*%
X101449500Y-166624000D03*
X103274500Y-166624000D03*
%TD*%
D16*
%TO.C,Q5*%
X125857000Y-157545000D03*
X124587000Y-157545000D03*
X123317000Y-157545000D03*
X122047000Y-157545000D03*
X122047000Y-162495000D03*
X123317000Y-162495000D03*
X124587000Y-162495000D03*
X125857000Y-162495000D03*
%TD*%
D17*
%TO.C,R25*%
X104013000Y-171680500D03*
X104013000Y-173505500D03*
%TD*%
D14*
%TO.C,R13*%
X131468500Y-152908000D03*
X129643500Y-152908000D03*
%TD*%
D10*
%TO.C,R23*%
X124206000Y-153416000D03*
X124206000Y-151591000D03*
%TD*%
D12*
%TO.C,SW1*%
X142674000Y-147320000D03*
X134874000Y-147320000D03*
%TD*%
D11*
%TO.C,R15*%
X101449500Y-169418000D03*
X103274500Y-169418000D03*
%TD*%
D17*
%TO.C,R26*%
X101346000Y-171657000D03*
X101346000Y-173482000D03*
%TD*%
D10*
%TO.C,R22*%
X114808000Y-153566500D03*
X114808000Y-151741500D03*
%TD*%
%TO.C,R24*%
X117856000Y-153566500D03*
X117856000Y-151741500D03*
%TD*%
D11*
%TO.C,R31*%
X101449500Y-161036000D03*
X103274500Y-161036000D03*
%TD*%
D14*
%TO.C,R14*%
X131468500Y-155194000D03*
X129643500Y-155194000D03*
%TD*%
D11*
%TO.C,R32*%
X101299000Y-157988000D03*
X103124000Y-157988000D03*
%TD*%
D18*
%TO.C,C8*%
X118999000Y-158342500D03*
X118999000Y-156617500D03*
%TD*%
D16*
%TO.C,Q6*%
X116078000Y-157610000D03*
X114808000Y-157610000D03*
X113538000Y-157610000D03*
X112268000Y-157610000D03*
X112268000Y-162560000D03*
X113538000Y-162560000D03*
X114808000Y-162560000D03*
X116078000Y-162560000D03*
%TD*%
D18*
%TO.C,C3*%
X108712000Y-162279500D03*
X108712000Y-160554500D03*
%TD*%
M02*
