%TF.GenerationSoftware,KiCad,Pcbnew,(6.0.0)*%
%TF.CreationDate,2023-05-26T23:18:24+03:00*%
%TF.ProjectId,uni_mcu_pcb,756e695f-6d63-4755-9f70-63622e6b6963,rev?*%
%TF.SameCoordinates,Original*%
%TF.FileFunction,Paste,Bot*%
%TF.FilePolarity,Positive*%
%FSLAX46Y46*%
G04 Gerber Fmt 4.6, Leading zero omitted, Abs format (unit mm)*
G04 Created by KiCad (PCBNEW (6.0.0)) date 2023-05-26 23:18:24*
%MOMM*%
%LPD*%
G01*
G04 APERTURE LIST*
G04 Aperture macros list*
%AMRoundRect*
0 Rectangle with rounded corners*
0 $1 Rounding radius*
0 $2 $3 $4 $5 $6 $7 $8 $9 X,Y pos of 4 corners*
0 Add a 4 corners polygon primitive as box body*
4,1,4,$2,$3,$4,$5,$6,$7,$8,$9,$2,$3,0*
0 Add four circle primitives for the rounded corners*
1,1,$1+$1,$2,$3*
1,1,$1+$1,$4,$5*
1,1,$1+$1,$6,$7*
1,1,$1+$1,$8,$9*
0 Add four rect primitives between the rounded corners*
20,1,$1+$1,$2,$3,$4,$5,0*
20,1,$1+$1,$4,$5,$6,$7,0*
20,1,$1+$1,$6,$7,$8,$9,0*
20,1,$1+$1,$8,$9,$2,$3,0*%
G04 Aperture macros list end*
%ADD10RoundRect,0.237500X-0.237500X0.250000X-0.237500X-0.250000X0.237500X-0.250000X0.237500X0.250000X0*%
%ADD11RoundRect,0.237500X0.237500X-0.250000X0.237500X0.250000X-0.237500X0.250000X-0.237500X-0.250000X0*%
%ADD12RoundRect,0.150000X-0.825000X-0.150000X0.825000X-0.150000X0.825000X0.150000X-0.825000X0.150000X0*%
%ADD13RoundRect,0.150000X-0.150000X0.512500X-0.150000X-0.512500X0.150000X-0.512500X0.150000X0.512500X0*%
%ADD14RoundRect,0.237500X-0.300000X-0.237500X0.300000X-0.237500X0.300000X0.237500X-0.300000X0.237500X0*%
%ADD15RoundRect,0.125000X0.625000X0.125000X-0.625000X0.125000X-0.625000X-0.125000X0.625000X-0.125000X0*%
%ADD16RoundRect,0.125000X0.125000X0.625000X-0.125000X0.625000X-0.125000X-0.625000X0.125000X-0.625000X0*%
%ADD17RoundRect,0.237500X0.237500X-0.300000X0.237500X0.300000X-0.237500X0.300000X-0.237500X-0.300000X0*%
%ADD18RoundRect,0.250000X1.000000X0.900000X-1.000000X0.900000X-1.000000X-0.900000X1.000000X-0.900000X0*%
%ADD19RoundRect,0.250000X-1.000000X-0.900000X1.000000X-0.900000X1.000000X0.900000X-1.000000X0.900000X0*%
%ADD20RoundRect,0.237500X-0.237500X0.300000X-0.237500X-0.300000X0.237500X-0.300000X0.237500X0.300000X0*%
%ADD21R,2.000000X1.500000*%
%ADD22R,2.000000X3.800000*%
%ADD23R,1.150000X0.600000*%
%ADD24R,1.150000X0.300000*%
G04 APERTURE END LIST*
D10*
%TO.C,R20*%
X117094000Y-153115000D03*
X117094000Y-154940000D03*
%TD*%
D11*
%TO.C,R2*%
X130175000Y-133246500D03*
X130175000Y-131421500D03*
%TD*%
D12*
%TO.C,U2*%
X96077000Y-130175000D03*
X96077000Y-128905000D03*
X96077000Y-127635000D03*
X96077000Y-126365000D03*
X101027000Y-126365000D03*
X101027000Y-127635000D03*
X101027000Y-128905000D03*
X101027000Y-130175000D03*
%TD*%
D13*
%TO.C,Q3*%
X117668000Y-145928500D03*
X119568000Y-145928500D03*
X118618000Y-148203500D03*
%TD*%
D14*
%TO.C,C7*%
X131371000Y-141986000D03*
X133096000Y-141986000D03*
%TD*%
D13*
%TO.C,Q4*%
X127066000Y-127132500D03*
X128966000Y-127132500D03*
X128016000Y-129407500D03*
%TD*%
D10*
%TO.C,R3*%
X115316000Y-144629500D03*
X115316000Y-146454500D03*
%TD*%
D15*
%TO.C,U4*%
X118475000Y-131185000D03*
X118475000Y-131985000D03*
X118475000Y-132785000D03*
X118475000Y-133585000D03*
X118475000Y-134385000D03*
X118475000Y-135185000D03*
X118475000Y-135985000D03*
X118475000Y-136785000D03*
D16*
X117100000Y-138160000D03*
X116300000Y-138160000D03*
X115500000Y-138160000D03*
X114700000Y-138160000D03*
X113900000Y-138160000D03*
X113100000Y-138160000D03*
X112300000Y-138160000D03*
X111500000Y-138160000D03*
D15*
X110125000Y-136785000D03*
X110125000Y-135985000D03*
X110125000Y-135185000D03*
X110125000Y-134385000D03*
X110125000Y-133585000D03*
X110125000Y-132785000D03*
X110125000Y-131985000D03*
X110125000Y-131185000D03*
D16*
X111500000Y-129810000D03*
X112300000Y-129810000D03*
X113100000Y-129810000D03*
X113900000Y-129810000D03*
X114700000Y-129810000D03*
X115500000Y-129810000D03*
X116300000Y-129810000D03*
X117100000Y-129810000D03*
%TD*%
D10*
%TO.C,R19*%
X124968000Y-152249500D03*
X124968000Y-154074500D03*
%TD*%
D11*
%TO.C,R11*%
X98806000Y-137969000D03*
X98806000Y-136144000D03*
%TD*%
%TO.C,R12*%
X122555000Y-130452500D03*
X122555000Y-128627500D03*
%TD*%
D10*
%TO.C,R18*%
X114046000Y-152607000D03*
X114046000Y-154432000D03*
%TD*%
D11*
%TO.C,R16*%
X104140000Y-143914500D03*
X104140000Y-142089500D03*
%TD*%
%TO.C,R4*%
X125222000Y-130452500D03*
X125222000Y-128627500D03*
%TD*%
D17*
%TO.C,C9*%
X129286000Y-158723500D03*
X129286000Y-156998500D03*
%TD*%
D18*
%TO.C,D2*%
X97654000Y-146558000D03*
X93354000Y-146558000D03*
%TD*%
D14*
%TO.C,C5*%
X131598500Y-136144000D03*
X133323500Y-136144000D03*
%TD*%
D10*
%TO.C,R17*%
X122174000Y-152249500D03*
X122174000Y-154074500D03*
%TD*%
D13*
%TO.C,Q1*%
X135194000Y-127132500D03*
X137094000Y-127132500D03*
X136144000Y-129407500D03*
%TD*%
D19*
%TO.C,D3*%
X133604000Y-156464000D03*
X137904000Y-156464000D03*
%TD*%
D14*
%TO.C,C4*%
X105156000Y-128397000D03*
X106881000Y-128397000D03*
%TD*%
D11*
%TO.C,R1*%
X134112000Y-133246500D03*
X134112000Y-131421500D03*
%TD*%
D10*
%TO.C,R27*%
X99822000Y-150725500D03*
X99822000Y-152550500D03*
%TD*%
D11*
%TO.C,R5*%
X90805000Y-130095000D03*
X90805000Y-128270000D03*
%TD*%
D20*
%TO.C,C1*%
X99822000Y-139753000D03*
X99822000Y-141478000D03*
%TD*%
D21*
%TO.C,U5*%
X122022000Y-157466000D03*
X122022000Y-159766000D03*
D22*
X115722000Y-159766000D03*
D21*
X122022000Y-162066000D03*
%TD*%
D14*
%TO.C,C6*%
X125984000Y-141986000D03*
X127709000Y-141986000D03*
%TD*%
%TO.C,C2*%
X91440000Y-126238000D03*
X93165000Y-126238000D03*
%TD*%
D11*
%TO.C,R9*%
X100330000Y-137564500D03*
X100330000Y-135739500D03*
%TD*%
D23*
%TO.C,J1*%
X95374000Y-140360000D03*
X95374000Y-139560000D03*
D24*
X95374000Y-138410000D03*
X95374000Y-137410000D03*
X95374000Y-136910000D03*
X95374000Y-135910000D03*
D23*
X95374000Y-134760000D03*
X95374000Y-133960000D03*
X95374000Y-133960000D03*
X95374000Y-134760000D03*
D24*
X95374000Y-135410000D03*
X95374000Y-136410000D03*
X95374000Y-137910000D03*
X95374000Y-138910000D03*
D23*
X95374000Y-139560000D03*
X95374000Y-140360000D03*
%TD*%
D13*
%TO.C,Q2*%
X131130000Y-127132500D03*
X133030000Y-127132500D03*
X132080000Y-129407500D03*
%TD*%
D17*
%TO.C,C10*%
X129286000Y-155067000D03*
X129286000Y-153342000D03*
%TD*%
D11*
%TO.C,R6*%
X93472000Y-130095000D03*
X93472000Y-128270000D03*
%TD*%
M02*
